<svg width="491" height="252" viewBox="0 0 491 252" fill="none" xmlns="http://www.w3.org/2000/svg">
<path d="M2 238C16.5874 224.752 33.2679 212.385 44.7778 196.222C59.3444 175.767 63.4984 150.244 68.5556 126.222C73.774 101.435 81.3268 76.7841 85.2222 51.7777C86.822 41.5078 87.2727 31.1422 88.5 20.8333C89.2151 14.8265 89 8.76034 89 2.72216C89 -0.866572 90.8052 8.62326 90.8889 8.88882C101.823 43.5835 116.646 76.7419 129.389 110.722C129.547 111.145 130.097 115.025 131 113.444C132.907 110.107 135.397 106.859 137.556 103.667C151.175 83.5217 165.504 63.9046 179.222 43.8333C185.394 34.8027 193.085 25.2751 198 15.4444C198.667 14.111 196.667 18.111 196 19.4444C192.165 27.1142 190.992 35.3889 188.889 43.7222C184.883 59.5922 180.346 75.4228 175.5 91.0555C167.51 116.83 163.068 142.02 162.222 169C161.866 180.355 162.778 191.467 163 202.778C163.045 205.084 162.726 206.422 165.444 205.778C172.189 204.18 179.027 203.224 185.778 201.778C197.496 199.267 204.188 177.04 208.5 167.944C213.666 157.048 218.142 145.544 224 135C225.927 131.531 225 126.513 225 122.667C225 114.311 223.225 121.382 223.056 125.611C222.423 141.425 221.001 156.902 219.556 172.667C218.814 180.758 217.111 189.486 217.111 197.611C217.111 209.585 227.719 206.025 233.778 201.222C244.891 192.412 249.607 179.899 254.222 166.889C254.702 165.537 266.127 134.621 265.444 134.167C264.114 133.279 265 137.345 265 138.944C265 145.592 264.959 152.241 265.056 158.889C265.247 172.107 265.735 185.346 267.111 198.5C268.186 208.772 268.986 220.784 273.667 230.222C274.795 232.497 279.905 243.764 284 239.889C288.418 235.708 290.942 228.19 293.556 222.889C298.237 213.391 302.195 203.72 305.222 193.555C314.67 161.84 319.81 127.578 322.778 94.6666C323.92 81.9963 325.198 69.3367 326.333 56.6666C326.841 50.9994 327.709 44.5097 326.944 38.7777C326.211 33.274 320.343 44.6368 320.333 44.6666C304.275 92.3069 300.552 143.346 312.111 192.611C316.586 211.683 322.901 229.725 328.778 248.333C331.297 256.31 334.086 230.297 334.111 230.111C336.431 213.134 340.357 196.464 347.389 180.778C349.708 175.604 346.199 176.934 341.222 177C340.618 177.008 337.392 177.448 337.667 177.333C342.442 175.331 347.082 172.717 351.667 170.333C383.382 153.841 413.71 135.166 444.722 117.444C448.279 115.412 458.596 110 454.5 110C451.205 110 446.589 117.187 445 119.222C426.861 142.456 413.417 168.594 408.444 197.889C408.077 200.055 403.948 216.958 406.222 218.778C409.172 221.138 415.768 214.368 417.222 212.833C426.489 203.052 431.036 192.602 435.056 179.833C439.056 167.127 444.735 154.739 445 141.222C445.044 138.994 443.872 126.537 445.556 126.055C446.848 125.686 448.366 120.96 448.056 122.667C445.606 136.137 445.103 149.774 443.889 163.389C442.825 175.325 440.63 187.092 441 199.111C441.114 202.808 442.489 212.525 447 213.778C451.743 215.095 461.076 195.828 462.278 192.944C465.68 184.78 467.817 176.013 470.722 167.667C474.812 155.918 479.469 144.404 483.278 132.555C484.17 129.781 492.079 115.27 487 114" stroke="black" stroke-width="3" stroke-linecap="round"/>
</svg>
