<svg width="603" height="75" viewBox="0 0 603 75" fill="none" xmlns="http://www.w3.org/2000/svg">
<path d="M110.656 11.625C109.312 13.5938 107.812 15.9531 106.156 18.7031C104.5 21.4531 102.734 24.5312 100.859 27.9375C99.2656 30.7812 97.6875 33.8125 96.125 37.0312C94.5938 40.2188 93.125 43.3906 91.7188 46.5469C90.3125 49.6719 89.0156 52.6875 87.8281 55.5938C86.6406 58.4688 85.6094 61.0156 84.7344 63.2344C83.8594 65.4219 83.1719 67.1875 82.6719 68.5312C82.1719 69.8438 81.9219 70.5156 81.9219 70.5469C81.6094 71.3281 81.0469 71.7188 80.2344 71.7188C79.8281 71.7188 79.4688 71.5938 79.1562 71.3438C78.8438 71.0625 78.6406 70.7188 78.5469 70.3125C78.5469 70.2812 78.3906 69.625 78.0781 68.3438C77.7969 67.0312 77.4062 65.2969 76.9062 63.1406C76.4062 60.9531 75.8281 58.4531 75.1719 55.6406C74.5469 52.7969 73.875 49.8438 73.1562 46.7812C72.4688 43.6875 71.7656 40.5625 71.0469 37.4062C70.3281 34.25 69.6562 31.25 69.0312 28.4062C66.9375 34.3125 64.8281 39.5469 62.7031 44.1094C60.6094 48.6406 58.4531 52.5938 56.2344 55.9688C54.0156 59.3125 51.7188 62.125 49.3438 64.4062C47 66.6875 44.5312 68.5312 41.9375 69.9375C39.375 71.3125 36.6719 72.2969 33.8281 72.8906C31.0156 73.4844 28.0312 73.7812 24.875 73.7812C23.25 73.7812 21.5156 73.5938 19.6719 73.2188C17.8281 72.875 16 72.3281 14.1875 71.5781C12.375 70.8281 10.6406 69.8906 8.98438 68.7656C7.32812 67.6406 5.85938 66.3125 4.57812 64.7812C3.29688 63.2188 2.28125 61.4688 1.53125 59.5312C0.78125 57.5625 0.40625 55.375 0.40625 52.9688C0.40625 50.4375 0.9375 48.125 2 46.0312C3.0625 43.9062 4.5 42.0938 6.3125 40.5938C8.125 39.0625 10.2188 37.875 12.5938 37.0312C15 36.1875 17.5312 35.7656 20.1875 35.7656C22.125 35.7656 23.8594 35.9375 25.3906 36.2812C26.9531 36.5938 28.3281 37 29.5156 37.5C30.7031 38 31.7188 38.5469 32.5625 39.1406C33.4062 39.7344 34.1094 40.2812 34.6719 40.7812C35.2344 41.2812 35.6406 41.7188 35.8906 42.0938C36.1406 42.4375 36.2812 42.6094 36.3125 42.6094C36.5 42.9531 36.5938 43.2812 36.5938 43.5938C36.5938 44.0312 36.4219 44.4375 36.0781 44.8125C35.7656 45.1875 35.3438 45.375 34.8125 45.375C34.1875 45.375 33.6875 45.1094 33.3125 44.5781C33.2812 44.5469 33.0312 44.2656 32.5625 43.7344C32.0938 43.1719 31.3281 42.5625 30.2656 41.9062C29.2031 41.25 27.8281 40.6562 26.1406 40.125C24.4844 39.5938 22.4531 39.3281 20.0469 39.3281C17.8594 39.3281 15.7812 39.6719 13.8125 40.3594C11.875 41.0156 10.1719 41.9531 8.70312 43.1719C7.26562 44.3906 6.10938 45.8438 5.23438 47.5312C4.39062 49.1875 3.96875 51.0156 3.96875 53.0156C3.96875 54.9844 4.29688 56.7812 4.95312 58.4062C5.60938 60.0312 6.48438 61.4844 7.57812 62.7656C8.67188 64.0469 9.9375 65.1562 11.375 66.0938C12.8125 67.0312 14.3125 67.8125 15.875 68.4375C17.4375 69.0312 19 69.4844 20.5625 69.7969C22.1562 70.0781 23.6562 70.2188 25.0625 70.2188C27.4375 70.2188 29.75 70.0469 32 69.7031C34.2812 69.3281 36.5156 68.6406 38.7031 67.6406C40.9219 66.6406 43.0938 65.2656 45.2188 63.5156C47.3438 61.7656 49.4531 59.4844 51.5469 56.6719C53.6406 53.8594 55.7031 50.4688 57.7344 46.5C59.7969 42.5312 61.8594 37.8438 63.9219 32.4375C64.5469 30.8125 65.1562 29.0625 65.75 27.1875C66.3438 25.3125 66.9531 23.4219 67.5781 21.5156C67.0469 18.7656 66.6562 16.4219 66.4062 14.4844C66.1875 12.5469 66.0781 10.9375 66.0781 9.65625C66.0781 8.28125 66.1875 7.1875 66.4062 6.375C66.625 5.5625 66.9062 4.95313 67.25 4.54688C67.5938 4.10938 67.9688 3.84375 68.375 3.75C68.7812 3.625 69.1719 3.5625 69.5469 3.5625C69.8594 3.5625 70.2031 3.625 70.5781 3.75C70.9844 3.875 71.3438 4.15625 71.6562 4.59375C72 5 72.2812 5.60938 72.5 6.42188C72.7188 7.23437 72.8281 8.32813 72.8281 9.70312C72.8281 11.2031 72.6875 12.9375 72.4062 14.9062C72.125 16.875 71.7031 19.0469 71.1406 21.4219C71.5469 23.3281 72.0156 25.4531 72.5469 27.7969C73.0781 30.1406 73.625 32.5781 74.1875 35.1094C74.75 37.6094 75.3281 40.1719 75.9219 42.7969C76.5156 45.4219 77.0938 47.9844 77.6562 50.4844C78.2188 52.9844 78.75 55.375 79.25 57.6562C79.7812 59.9375 80.2656 62 80.7031 63.8438C81.5469 61.7188 82.5781 59.1562 83.7969 56.1562C85.0156 53.125 86.375 49.9219 87.875 46.5469C89.375 43.1406 90.9531 39.6875 92.6094 36.1875C94.2969 32.6562 96.0156 29.3281 97.7656 26.2031C100.234 21.7656 102.5 17.9688 104.562 14.8125C106.625 11.625 108.406 9 109.906 6.9375C111.406 4.875 112.578 3.35938 113.422 2.39062C114.297 1.39063 114.766 0.84375 114.828 0.75C115.172 0.40625 115.594 0.234375 116.094 0.234375C116.625 0.234375 117.047 0.421875 117.359 0.796875C117.703 1.14062 117.875 1.54688 117.875 2.01562C117.875 2.23438 117.828 2.45312 117.734 2.67188C117.734 2.70313 117.547 3.17188 117.172 4.07812C116.828 4.95313 116.375 6.17188 115.812 7.73438C115.281 9.26563 114.688 11.0781 114.031 13.1719C113.375 15.2344 112.734 17.4688 112.109 19.875C111.484 22.25 110.922 24.75 110.422 27.375C109.953 29.9688 109.609 32.5625 109.391 35.1562C109.297 36.3438 109.219 37.5938 109.156 38.9062C109.094 40.1875 109.062 41.4844 109.062 42.7969C109.062 44.8594 109.156 46.9375 109.344 49.0312C109.531 51.125 109.844 53.1406 110.281 55.0781C110.719 57.0156 111.312 58.8438 112.062 60.5625C112.812 62.25 113.734 63.7344 114.828 65.0156C115.922 66.2969 117.219 67.3281 118.719 68.1094C120.25 68.8906 122.016 69.3125 124.016 69.375C124.516 69.4062 124.906 69.625 125.188 70.0312C125.5 70.4062 125.656 70.8125 125.656 71.25C125.656 71.6875 125.484 72.0781 125.141 72.4219C124.797 72.7656 124.391 72.9375 123.922 72.9375C123.422 72.9375 122.922 72.8906 122.422 72.7969C120.172 72.4844 118.188 71.8438 116.469 70.875C114.75 69.875 113.266 68.6562 112.016 67.2188C110.766 65.75 109.719 64.0938 108.875 62.25C108.062 60.375 107.406 58.375 106.906 56.25C106.406 54.125 106.047 51.9219 105.828 49.6406C105.641 47.3281 105.547 45 105.547 42.6562C105.547 39.875 105.688 37.0938 105.969 34.3125C106.25 31.5312 106.625 28.8281 107.094 26.2031C107.562 23.5469 108.109 20.9844 108.734 18.5156C109.359 16.0469 110 13.75 110.656 11.625ZM136.016 35.2031C136.016 36.3906 135.594 37.4062 134.75 38.25C133.938 39.0625 132.938 39.4688 131.75 39.4688C130.562 39.4688 129.547 39.0625 128.703 38.25C127.891 37.4062 127.484 36.3906 127.484 35.2031C127.484 34.6094 127.594 34.0625 127.812 33.5625C128.031 33.0312 128.328 32.5781 128.703 32.2031C129.109 31.7969 129.562 31.4844 130.062 31.2656C130.594 31.0469 131.156 30.9375 131.75 30.9375C132.344 30.9375 132.891 31.0469 133.391 31.2656C133.922 31.4844 134.375 31.7969 134.75 32.2031C135.156 32.5781 135.469 33.0312 135.688 33.5625C135.906 34.0625 136.016 34.6094 136.016 35.2031ZM128.422 62.6719C128.422 58.1719 128.703 53.6875 129.266 49.2188C129.328 48.7812 129.516 48.4062 129.828 48.0938C130.172 47.75 130.609 47.5781 131.141 47.5781C131.609 47.5781 132 47.7656 132.312 48.1406C132.625 48.4844 132.781 48.8906 132.781 49.3594C132.781 49.5469 132.734 50.1094 132.641 51.0469C132.578 51.9844 132.484 53.1094 132.359 54.4219C132.266 55.7031 132.172 57.0781 132.078 58.5469C132.016 59.9844 131.984 61.3125 131.984 62.5312C131.984 64.1875 132.141 65.5312 132.453 66.5625C132.797 67.5625 133.219 68.3438 133.719 68.9062C134.25 69.4688 134.797 69.8438 135.359 70.0312C135.953 70.2188 136.516 70.3125 137.047 70.3125C137.922 70.3125 138.828 70 139.766 69.375C140.703 68.75 141.656 67.875 142.625 66.75C143.625 65.625 144.625 64.2812 145.625 62.7188C146.625 61.125 147.609 59.3594 148.578 57.4219C148.734 57.1094 148.953 56.875 149.234 56.7188C149.516 56.5312 149.828 56.4375 150.172 56.4375C150.672 56.4375 151.078 56.625 151.391 57C151.734 57.375 151.906 57.7812 151.906 58.2188C151.906 58.5312 151.844 58.7969 151.719 59.0156C151.344 59.7344 150.875 60.6094 150.312 61.6406C149.75 62.6719 149.109 63.7344 148.391 64.8281C147.672 65.9219 146.875 67.0156 146 68.1094C145.156 69.1719 144.25 70.1406 143.281 71.0156C142.312 71.8594 141.297 72.5469 140.234 73.0781C139.172 73.6094 138.094 73.875 137 73.875C135.594 73.875 134.359 73.5781 133.297 72.9844C132.234 72.3906 131.328 71.5938 130.578 70.5938C129.859 69.5938 129.312 68.4219 128.938 67.0781C128.594 65.7031 128.422 64.2344 128.422 62.6719ZM133.391 35.2031C133.391 34.7656 133.219 34.3906 132.875 34.0781C132.562 33.7344 132.188 33.5625 131.75 33.5625C131.312 33.5625 130.938 33.7344 130.625 34.0781C130.312 34.3906 130.156 34.7656 130.156 35.2031C130.156 35.6406 130.312 36.0156 130.625 36.3281C130.938 36.6406 131.312 36.7969 131.75 36.7969C132.188 36.7969 132.562 36.6406 132.875 36.3281C133.219 36.0156 133.391 35.6406 133.391 35.2031ZM153.453 52.7344C153.328 53.5781 153.172 54.375 152.984 55.125C152.797 55.8438 152.609 56.4844 152.422 57.0469C152.266 57.5781 152.125 58.0156 152 58.3594C151.875 58.7031 151.797 58.8906 151.766 58.9219C151.453 59.6406 150.906 60 150.125 60C149.688 60 149.281 59.8438 148.906 59.5312C148.531 59.1875 148.344 58.7656 148.344 58.2656C148.344 58.0781 148.375 57.9375 148.438 57.8438C148.5 57.75 148.594 57.5625 148.719 57.2812C148.844 57 149 56.5312 149.188 55.875C149.375 55.2188 149.609 54.2031 149.891 52.8281C149.359 52.8281 148.812 52.8125 148.25 52.7812C147.688 52.75 147.172 52.6406 146.703 52.4531C146.203 52.2656 145.797 51.9688 145.484 51.5625C145.172 51.1562 145.016 50.5938 145.016 49.875C145.016 49.3438 145.172 48.625 145.484 47.7188C145.766 46.8125 146.156 45.9219 146.656 45.0469C147.156 44.1719 147.719 43.4219 148.344 42.7969C148.969 42.1406 149.594 41.8125 150.219 41.8125C150.938 41.8125 151.516 42.0781 151.953 42.6094C152.422 43.1406 152.781 43.7969 153.031 44.5781C153.281 45.3281 153.453 46.125 153.547 46.9688C153.672 47.8125 153.734 48.5469 153.734 49.1719C154.266 49.1719 154.781 49.1719 155.281 49.1719C155.812 49.1406 156.312 49.125 156.781 49.125C158.562 49.125 159.922 49.5156 160.859 50.2969C161.797 51.0781 162.266 52.3594 162.266 54.1406C162.266 54.8594 162.219 55.6094 162.125 56.3906C162.031 57.1719 161.922 57.9844 161.797 58.8281C161.672 59.6406 161.562 60.4531 161.469 61.2656C161.375 62.0781 161.328 62.875 161.328 63.6562C161.328 64.7812 161.484 65.7188 161.797 66.4688C162.109 67.1875 162.5 67.7656 162.969 68.2031C163.438 68.6406 163.938 68.9531 164.469 69.1406C165 69.2969 165.484 69.375 165.922 69.375C167.266 69.375 168.531 68.9375 169.719 68.0625C170.906 67.1875 172 66.1406 173 64.9219C174 63.6719 174.891 62.3594 175.672 60.9844C176.484 59.6094 177.156 58.4062 177.688 57.375C177.844 57.0938 178.062 56.875 178.344 56.7188C178.625 56.5625 178.922 56.4844 179.234 56.4844C179.797 56.4844 180.234 56.6719 180.547 57.0469C180.859 57.3906 181.016 57.7812 181.016 58.2188C181.016 58.5312 180.953 58.8125 180.828 59.0625C180.109 60.3438 179.266 61.7969 178.297 63.4219C177.359 65.0156 176.281 66.5156 175.062 67.9219C173.844 69.3281 172.469 70.5156 170.938 71.4844C169.438 72.4531 167.781 72.9375 165.969 72.9375C164.844 72.9375 163.781 72.7188 162.781 72.2812C161.781 71.875 160.906 71.2812 160.156 70.5C159.438 69.6875 158.859 68.7031 158.422 67.5469C157.984 66.3594 157.766 65.0312 157.766 63.5625C157.766 62 157.922 60.4531 158.234 58.9219C158.547 57.3594 158.703 55.875 158.703 54.4688C158.703 53.875 158.562 53.4375 158.281 53.1562C158.031 52.8438 157.453 52.6875 156.547 52.6875C156.109 52.6875 155.625 52.6875 155.094 52.6875C154.594 52.6875 154.047 52.7031 153.453 52.7344ZM150.312 49.2656C150.312 49.0469 150.297 48.7656 150.266 48.4219C150.266 48.0469 150.234 47.6875 150.172 47.3438C150.141 47 150.078 46.7031 149.984 46.4531C149.922 46.2031 149.844 46.0781 149.75 46.0781C149.656 46.0781 149.531 46.2031 149.375 46.4531C149.25 46.6719 149.109 46.9531 148.953 47.2969C148.797 47.6094 148.656 47.9531 148.531 48.3281C148.406 48.7031 148.312 49.0156 148.25 49.2656H150.312ZM308.656 11.625C307.312 13.5938 305.812 15.9531 304.156 18.7031C302.5 21.4531 300.734 24.5312 298.859 27.9375C297.266 30.7812 295.688 33.8125 294.125 37.0312C292.594 40.2188 291.125 43.3906 289.719 46.5469C288.312 49.6719 287.016 52.6875 285.828 55.5938C284.641 58.4688 283.609 61.0156 282.734 63.2344C281.859 65.4219 281.172 67.1875 280.672 68.5312C280.172 69.8438 279.922 70.5156 279.922 70.5469C279.609 71.3281 279.047 71.7188 278.234 71.7188C277.828 71.7188 277.469 71.5938 277.156 71.3438C276.844 71.0625 276.641 70.7188 276.547 70.3125C276.547 70.2812 276.391 69.625 276.078 68.3438C275.797 67.0312 275.406 65.2969 274.906 63.1406C274.406 60.9531 273.828 58.4531 273.172 55.6406C272.547 52.7969 271.875 49.8438 271.156 46.7812C270.469 43.6875 269.766 40.5625 269.047 37.4062C268.328 34.25 267.656 31.25 267.031 28.4062C264.938 34.3125 262.828 39.5469 260.703 44.1094C258.609 48.6406 256.453 52.5938 254.234 55.9688C252.016 59.3125 249.719 62.125 247.344 64.4062C245 66.6875 242.531 68.5312 239.938 69.9375C237.375 71.3125 234.672 72.2969 231.828 72.8906C229.016 73.4844 226.031 73.7812 222.875 73.7812C221.25 73.7812 219.516 73.5938 217.672 73.2188C215.828 72.875 214 72.3281 212.188 71.5781C210.375 70.8281 208.641 69.8906 206.984 68.7656C205.328 67.6406 203.859 66.3125 202.578 64.7812C201.297 63.2188 200.281 61.4688 199.531 59.5312C198.781 57.5625 198.406 55.375 198.406 52.9688C198.406 50.4375 198.938 48.125 200 46.0312C201.062 43.9062 202.5 42.0938 204.312 40.5938C206.125 39.0625 208.219 37.875 210.594 37.0312C213 36.1875 215.531 35.7656 218.188 35.7656C220.125 35.7656 221.859 35.9375 223.391 36.2812C224.953 36.5938 226.328 37 227.516 37.5C228.703 38 229.719 38.5469 230.562 39.1406C231.406 39.7344 232.109 40.2812 232.672 40.7812C233.234 41.2812 233.641 41.7188 233.891 42.0938C234.141 42.4375 234.281 42.6094 234.312 42.6094C234.5 42.9531 234.594 43.2812 234.594 43.5938C234.594 44.0312 234.422 44.4375 234.078 44.8125C233.766 45.1875 233.344 45.375 232.812 45.375C232.188 45.375 231.688 45.1094 231.312 44.5781C231.281 44.5469 231.031 44.2656 230.562 43.7344C230.094 43.1719 229.328 42.5625 228.266 41.9062C227.203 41.25 225.828 40.6562 224.141 40.125C222.484 39.5938 220.453 39.3281 218.047 39.3281C215.859 39.3281 213.781 39.6719 211.812 40.3594C209.875 41.0156 208.172 41.9531 206.703 43.1719C205.266 44.3906 204.109 45.8438 203.234 47.5312C202.391 49.1875 201.969 51.0156 201.969 53.0156C201.969 54.9844 202.297 56.7812 202.953 58.4062C203.609 60.0312 204.484 61.4844 205.578 62.7656C206.672 64.0469 207.938 65.1562 209.375 66.0938C210.812 67.0312 212.312 67.8125 213.875 68.4375C215.438 69.0312 217 69.4844 218.562 69.7969C220.156 70.0781 221.656 70.2188 223.062 70.2188C225.438 70.2188 227.75 70.0469 230 69.7031C232.281 69.3281 234.516 68.6406 236.703 67.6406C238.922 66.6406 241.094 65.2656 243.219 63.5156C245.344 61.7656 247.453 59.4844 249.547 56.6719C251.641 53.8594 253.703 50.4688 255.734 46.5C257.797 42.5312 259.859 37.8438 261.922 32.4375C262.547 30.8125 263.156 29.0625 263.75 27.1875C264.344 25.3125 264.953 23.4219 265.578 21.5156C265.047 18.7656 264.656 16.4219 264.406 14.4844C264.188 12.5469 264.078 10.9375 264.078 9.65625C264.078 8.28125 264.188 7.1875 264.406 6.375C264.625 5.5625 264.906 4.95313 265.25 4.54688C265.594 4.10938 265.969 3.84375 266.375 3.75C266.781 3.625 267.172 3.5625 267.547 3.5625C267.859 3.5625 268.203 3.625 268.578 3.75C268.984 3.875 269.344 4.15625 269.656 4.59375C270 5 270.281 5.60938 270.5 6.42188C270.719 7.23437 270.828 8.32813 270.828 9.70312C270.828 11.2031 270.688 12.9375 270.406 14.9062C270.125 16.875 269.703 19.0469 269.141 21.4219C269.547 23.3281 270.016 25.4531 270.547 27.7969C271.078 30.1406 271.625 32.5781 272.188 35.1094C272.75 37.6094 273.328 40.1719 273.922 42.7969C274.516 45.4219 275.094 47.9844 275.656 50.4844C276.219 52.9844 276.75 55.375 277.25 57.6562C277.781 59.9375 278.266 62 278.703 63.8438C279.547 61.7188 280.578 59.1562 281.797 56.1562C283.016 53.125 284.375 49.9219 285.875 46.5469C287.375 43.1406 288.953 39.6875 290.609 36.1875C292.297 32.6562 294.016 29.3281 295.766 26.2031C298.234 21.7656 300.5 17.9688 302.562 14.8125C304.625 11.625 306.406 9 307.906 6.9375C309.406 4.875 310.578 3.35938 311.422 2.39062C312.297 1.39063 312.766 0.84375 312.828 0.75C313.172 0.40625 313.594 0.234375 314.094 0.234375C314.625 0.234375 315.047 0.421875 315.359 0.796875C315.703 1.14062 315.875 1.54688 315.875 2.01562C315.875 2.23438 315.828 2.45312 315.734 2.67188C315.734 2.70313 315.547 3.17188 315.172 4.07812C314.828 4.95313 314.375 6.17188 313.812 7.73438C313.281 9.26563 312.688 11.0781 312.031 13.1719C311.375 15.2344 310.734 17.4688 310.109 19.875C309.484 22.25 308.922 24.75 308.422 27.375C307.953 29.9688 307.609 32.5625 307.391 35.1562C307.297 36.3438 307.219 37.5938 307.156 38.9062C307.094 40.1875 307.062 41.4844 307.062 42.7969C307.062 44.8594 307.156 46.9375 307.344 49.0312C307.531 51.125 307.844 53.1406 308.281 55.0781C308.719 57.0156 309.312 58.8438 310.062 60.5625C310.812 62.25 311.734 63.7344 312.828 65.0156C313.922 66.2969 315.219 67.3281 316.719 68.1094C318.25 68.8906 320.016 69.3125 322.016 69.375C322.516 69.4062 322.906 69.625 323.188 70.0312C323.5 70.4062 323.656 70.8125 323.656 71.25C323.656 71.6875 323.484 72.0781 323.141 72.4219C322.797 72.7656 322.391 72.9375 321.922 72.9375C321.422 72.9375 320.922 72.8906 320.422 72.7969C318.172 72.4844 316.188 71.8438 314.469 70.875C312.75 69.875 311.266 68.6562 310.016 67.2188C308.766 65.75 307.719 64.0938 306.875 62.25C306.062 60.375 305.406 58.375 304.906 56.25C304.406 54.125 304.047 51.9219 303.828 49.6406C303.641 47.3281 303.547 45 303.547 42.6562C303.547 39.875 303.688 37.0938 303.969 34.3125C304.25 31.5312 304.625 28.8281 305.094 26.2031C305.562 23.5469 306.109 20.9844 306.734 18.5156C307.359 16.0469 308 13.75 308.656 11.625ZM341.938 66.75C340.844 68.5312 339.562 69.9375 338.094 70.9688C336.656 72 335.203 72.5156 333.734 72.5156C332.547 72.5156 331.484 72.2969 330.547 71.8594C329.609 71.4219 328.797 70.8125 328.109 70.0312C327.422 69.2188 326.891 68.25 326.516 67.125C326.172 66 326 64.7344 326 63.3281C326 61.1406 326.203 59.2031 326.609 57.5156C327.047 55.8281 327.516 54.4219 328.016 53.2969C328.516 52.1406 328.984 51.2656 329.422 50.6719C329.859 50.0781 330.078 49.7812 330.078 49.7812C330.234 49.5938 330.422 49.4531 330.641 49.3594C330.891 49.2656 331.141 49.2188 331.391 49.2188C331.891 49.2188 332.297 49.4062 332.609 49.7812C332.953 50.125 333.125 50.5312 333.125 51C333.125 51.1875 333.078 51.375 332.984 51.5625C332.922 51.75 332.844 51.9375 332.75 52.125C332.594 52.4062 332.344 52.8438 332 53.4375C331.656 54 331.297 54.75 330.922 55.6875C330.547 56.625 330.219 57.7344 329.938 59.0156C329.656 60.2656 329.516 61.7031 329.516 63.3281C329.516 65.1719 329.875 66.5781 330.594 67.5469C331.344 68.4844 332.391 68.9531 333.734 68.9531C334.297 68.9531 334.938 68.7812 335.656 68.4375C336.406 68.0625 337.125 67.5 337.812 66.75C338.531 66 339.156 65.0469 339.688 63.8906C340.219 62.7344 340.562 61.375 340.719 59.8125L341.422 51.75C341.484 51.2812 341.688 50.8906 342.031 50.5781C342.375 50.2656 342.781 50.1094 343.25 50.1094C343.781 50.1094 344.203 50.3125 344.516 50.7188C344.828 51.0938 344.984 51.5312 344.984 52.0312L344.375 59.8125C344.312 60.4688 344.328 61.3281 344.422 62.3906C344.547 63.4531 344.781 64.5 345.125 65.5312C345.469 66.5625 345.984 67.4531 346.672 68.2031C347.359 68.9219 348.266 69.2812 349.391 69.2812C350.203 69.2812 351 69.0781 351.781 68.6719C352.562 68.2344 353.312 67.6719 354.031 66.9844C354.75 66.2969 355.406 65.5312 356 64.6875C356.625 63.8125 357.188 62.9375 357.688 62.0625C358.219 61.1875 358.672 60.3594 359.047 59.5781C359.422 58.7656 359.734 58.0781 359.984 57.5156C360.141 57.1719 360.359 56.9062 360.641 56.7188C360.922 56.5312 361.234 56.4375 361.578 56.4375C362.141 56.4375 362.578 56.625 362.891 57C363.203 57.375 363.359 57.7812 363.359 58.2188C363.359 58.4688 363.312 58.7031 363.219 58.9219C363.094 59.1719 362.844 59.7031 362.469 60.5156C362.125 61.2969 361.656 62.2031 361.062 63.2344C360.5 64.2344 359.812 65.2969 359 66.4219C358.188 67.5469 357.281 68.5938 356.281 69.5625C355.281 70.5 354.188 71.2812 353 71.9062C351.844 72.5 350.594 72.7969 349.25 72.7969C347.406 72.7969 345.875 72.2812 344.656 71.25C343.438 70.1875 342.531 68.6875 341.938 66.75ZM399.547 59.0156C399.453 59.2031 399.25 59.5938 398.938 60.1875C398.625 60.75 398.219 61.4219 397.719 62.2031C397.219 62.9531 396.625 63.7656 395.938 64.6406C395.25 65.4844 394.5 66.2656 393.688 66.9844C392.875 67.7031 392 68.2969 391.062 68.7656C390.125 69.2344 389.156 69.4688 388.156 69.4688C386.531 69.4688 385.156 69.1875 384.031 68.625C382.906 68.0312 381.984 67.375 381.266 66.6562C380.766 67.75 380.156 68.75 379.438 69.6562C378.719 70.5625 377.922 71.3438 377.047 72C376.172 72.6875 375.234 73.2188 374.234 73.5938C373.266 73.9688 372.266 74.1562 371.234 74.1562C369.328 74.1562 367.703 73.5938 366.359 72.4688C365.016 71.3438 363.891 69.8438 362.984 67.9688C362.109 66.0625 361.422 63.8594 360.922 61.3594C360.422 58.8594 360.031 56.2344 359.75 53.4844C359.5 50.7344 359.344 47.9531 359.281 45.1406C359.219 42.3281 359.188 39.6562 359.188 37.125C359.188 32.2812 359.328 28.0938 359.609 24.5625C359.891 21 360.266 17.9844 360.734 15.5156C361.234 13.0156 361.797 11 362.422 9.46875C363.078 7.90625 363.766 6.70312 364.484 5.85938C365.203 4.98437 365.938 4.39063 366.688 4.07812C367.438 3.76562 368.172 3.60938 368.891 3.60938C370.047 3.60938 371.062 3.95312 371.938 4.64062C372.844 5.32813 373.594 6.29687 374.188 7.54688C374.812 8.76562 375.281 10.25 375.594 12C375.906 13.75 376.062 15.6719 376.062 17.7656C376.062 21.1094 375.703 24.5625 374.984 28.125C374.266 31.6875 373.328 35.25 372.172 38.8125C371.047 42.3438 369.781 45.8281 368.375 49.2656C366.969 52.6719 365.578 55.9062 364.203 58.9688C364.391 60.5 364.672 61.9688 365.047 63.375C365.422 64.75 365.906 65.9844 366.5 67.0781C367.094 68.1406 367.797 69 368.609 69.6562C369.422 70.2812 370.359 70.5938 371.422 70.5938C372.484 70.5938 373.484 70.2969 374.422 69.7031C375.359 69.0781 376.172 68.2812 376.859 67.3125C377.547 66.3125 378.078 65.1875 378.453 63.9375C378.859 62.6875 379.062 61.4062 379.062 60.0938C379.062 59.2188 378.969 58.3438 378.781 57.4688C378.625 56.5625 378.359 55.7656 377.984 55.0781C377.641 54.3594 377.203 53.7812 376.672 53.3438C376.141 52.9062 375.5 52.6875 374.75 52.6875C374.188 52.6875 373.75 52.8125 373.438 53.0625C373.125 53.2812 372.891 53.5469 372.734 53.8594C372.578 54.1406 372.484 54.4219 372.453 54.7031C372.422 54.9844 372.406 55.1719 372.406 55.2656C372.406 55.7031 372.5 56.1406 372.688 56.5781C372.875 57.0156 373.234 57.4062 373.766 57.75C374.297 58.125 374.562 58.6406 374.562 59.2969C374.562 59.8281 374.375 60.25 374 60.5625C373.656 60.875 373.266 61.0312 372.828 61.0312C372.203 61.0312 371.641 60.8438 371.141 60.4688C370.672 60.0938 370.266 59.625 369.922 59.0625C369.578 58.4688 369.312 57.8438 369.125 57.1875C368.938 56.5312 368.844 55.9219 368.844 55.3594C368.844 54.4531 369 53.625 369.312 52.875C369.625 52.0938 370.047 51.4375 370.578 50.9062C371.141 50.3438 371.766 49.9219 372.453 49.6406C373.172 49.3281 373.922 49.1719 374.703 49.1719C376.047 49.1719 377.203 49.4844 378.172 50.1094C379.172 50.7344 380 51.5625 380.656 52.5938C381.312 53.625 381.797 54.7969 382.109 56.1094C382.422 57.4219 382.578 58.75 382.578 60.0938C382.578 60.875 382.531 61.6406 382.438 62.3906C382.562 62.6406 382.766 62.9688 383.047 63.375C383.328 63.7812 383.703 64.1719 384.172 64.5469C384.641 64.9219 385.203 65.25 385.859 65.5312C386.516 65.8125 387.281 65.9531 388.156 65.9531C388.906 65.9531 389.672 65.6719 390.453 65.1094C391.266 64.5156 392.031 63.7969 392.75 62.9531C393.5 62.0781 394.188 61.1562 394.812 60.1875C395.438 59.1875 395.953 58.2656 396.359 57.4219C396.516 57.1094 396.734 56.875 397.016 56.7188C397.297 56.5312 397.609 56.4375 397.953 56.4375C398.484 56.4375 398.906 56.625 399.219 57C399.562 57.375 399.734 57.7969 399.734 58.2656C399.734 58.4531 399.672 58.7031 399.547 59.0156ZM363.312 52.9688C364.375 50.3438 365.453 47.5938 366.547 44.7188C367.641 41.8125 368.625 38.8594 369.5 35.8594C370.375 32.8594 371.094 29.8281 371.656 26.7656C372.219 23.7031 372.5 20.6875 372.5 17.7188C372.5 16.5938 372.438 15.4219 372.312 14.2031C372.219 12.9531 372.031 11.8125 371.75 10.7812C371.469 9.75 371.078 8.89063 370.578 8.20312C370.109 7.51562 369.5 7.17188 368.75 7.17188C368.5 7.17188 368.172 7.34375 367.766 7.6875C367.391 8 366.984 8.57812 366.547 9.42188C366.109 10.2344 365.672 11.375 365.234 12.8438C364.797 14.3125 364.391 16.1875 364.016 18.4688C363.672 20.7188 363.375 23.4375 363.125 26.625C362.906 29.8125 362.797 33.5625 362.797 37.875C362.797 39.3125 362.812 40.7812 362.844 42.2812C362.875 43.75 362.906 45.1562 362.938 46.5C363 47.8438 363.062 49.0781 363.125 50.2031C363.188 51.3281 363.25 52.25 363.312 52.9688ZM432.641 58.9219C432.516 59.1719 432.25 59.7031 431.844 60.5156C431.469 61.2969 430.969 62.2031 430.344 63.2344C429.75 64.2656 429.047 65.3438 428.234 66.4688C427.422 67.5938 426.516 68.625 425.516 69.5625C424.516 70.5 423.438 71.2812 422.281 71.9062C421.125 72.5 419.906 72.7969 418.625 72.7969C416.812 72.7969 415.281 72.2188 414.031 71.0625C412.812 69.9062 411.922 68.4531 411.359 66.7031C410.297 68.4844 409.031 69.9062 407.562 70.9688C406.094 72 404.625 72.5156 403.156 72.5156C402 72.5156 400.953 72.3125 400.016 71.9062C399.078 71.4688 398.281 70.875 397.625 70.125C396.969 69.3438 396.453 68.4375 396.078 67.4062C395.734 66.375 395.562 65.25 395.562 64.0312C395.562 61.5938 395.969 59.4531 396.781 57.6094C397.625 55.7344 398.688 54.1719 399.969 52.9219C401.25 51.6719 402.656 50.7344 404.188 50.1094C405.75 49.4844 407.25 49.1719 408.688 49.1719C409.656 49.1719 410.547 49.3125 411.359 49.5938C412.172 49.8438 412.859 50.125 413.422 50.4375C414.016 50.75 414.469 51.0469 414.781 51.3281C415.094 51.5781 415.266 51.7188 415.297 51.75C415.641 52.1562 415.812 52.5781 415.812 53.0156C415.812 53.4844 415.641 53.9062 415.297 54.2812C414.953 54.625 414.547 54.7969 414.078 54.7969C413.578 54.7969 413.156 54.625 412.812 54.2812C412.75 54.2188 412.609 54.1094 412.391 53.9531C412.172 53.7656 411.875 53.5781 411.5 53.3906C411.125 53.2031 410.672 53.0469 410.141 52.9219C409.641 52.7656 409.062 52.6875 408.406 52.6875C407.438 52.6875 406.406 52.9062 405.312 53.3438C404.219 53.7812 403.219 54.4688 402.312 55.4062C401.406 56.3125 400.641 57.4688 400.016 58.875C399.422 60.25 399.125 61.8906 399.125 63.7969C399.125 64.3906 399.188 65 399.312 65.625C399.438 66.2188 399.656 66.7656 399.969 67.2656C400.281 67.7656 400.703 68.1719 401.234 68.4844C401.766 68.7969 402.422 68.9531 403.203 68.9531C403.766 68.9531 404.406 68.7656 405.125 68.3906C405.875 68.0156 406.578 67.4375 407.234 66.6562C407.922 65.875 408.531 64.8906 409.062 63.7031C409.625 62.5156 410.016 61.1094 410.234 59.4844C410.297 59.0469 410.5 58.6875 410.844 58.4062C411.188 58.0938 411.594 57.9375 412.062 57.9375C412.5 57.9375 412.875 58.1094 413.188 58.4531C413.531 58.7969 413.719 59.1875 413.75 59.625C413.781 60.2188 413.844 61.0625 413.938 62.1562C414.031 63.2188 414.234 64.2812 414.547 65.3438C414.891 66.4062 415.391 67.3281 416.047 68.1094C416.703 68.8906 417.609 69.2812 418.766 69.2812C419.516 69.2812 420.25 69.0781 420.969 68.6719C421.719 68.2656 422.438 67.7344 423.125 67.0781C423.844 66.3906 424.516 65.625 425.141 64.7812C425.797 63.9062 426.391 63.0312 426.922 62.1562C427.453 61.2812 427.922 60.4375 428.328 59.625C428.734 58.8125 429.078 58.1094 429.359 57.5156C429.516 57.1719 429.734 56.9062 430.016 56.7188C430.328 56.5312 430.656 56.4375 431 56.4375C431.531 56.4375 431.953 56.6406 432.266 57.0469C432.609 57.4219 432.781 57.8281 432.781 58.2656C432.781 58.4844 432.734 58.7031 432.641 58.9219ZM434.609 54.6562C434.422 55.1562 434.188 55.7188 433.906 56.3438C433.656 56.9688 433.359 57.625 433.016 58.3125C432.734 58.8438 432.438 59.2656 432.125 59.5781C431.844 59.8594 431.469 60 431 60C430.469 60 430.047 59.8438 429.734 59.5312C429.422 59.1875 429.266 58.7969 429.266 58.3594C429.266 58.2031 429.281 58.0781 429.312 57.9844C429.344 57.8594 429.422 57.6719 429.547 57.4219C430.359 55.8594 430.953 54.5 431.328 53.3438C431.734 52.1562 432.062 50.9219 432.312 49.6406C432.094 48.9219 431.938 48.3125 431.844 47.8125C431.75 47.3125 431.703 46.7969 431.703 46.2656C431.703 45.2344 431.922 44.4062 432.359 43.7812C432.797 43.125 433.406 42.7969 434.188 42.7969C434.906 42.7969 435.469 43.1094 435.875 43.7344C436.312 44.3594 436.531 45.125 436.531 46.0312C436.531 46.5312 436.484 47.0312 436.391 47.5312C436.297 48.0312 436.172 48.6562 436.016 49.4062C436.734 51.1875 437.453 52.7656 438.172 54.1406C438.891 55.5156 439.531 56.7812 440.094 57.9375C440.656 59.0625 441.109 60.125 441.453 61.125C441.828 62.125 442.016 63.125 442.016 64.125C442.016 65.4375 441.75 66.6875 441.219 67.875C440.688 69.0625 439.812 70.0625 438.594 70.875C438.75 70.9062 438.906 70.9219 439.062 70.9219C439.219 70.9219 439.375 70.9219 439.531 70.9219C441.312 70.9219 442.953 70.5156 444.453 69.7031C445.953 68.8906 447.297 67.8438 448.484 66.5625C449.703 65.25 450.781 63.8125 451.719 62.25C452.656 60.6562 453.469 59.0781 454.156 57.5156C454.469 56.7969 454.906 56.4375 455.469 56.4375C456 56.4375 456.406 56.625 456.688 57C457 57.375 457.156 57.7812 457.156 58.2188C457.156 58.4688 457.109 58.7031 457.016 58.9219C456.672 59.7656 456.219 60.7344 455.656 61.8281C455.125 62.8906 454.469 64 453.688 65.1562C452.938 66.2812 452.062 67.3906 451.062 68.4844C450.062 69.5781 448.938 70.5625 447.688 71.4375C446.469 72.2812 445.125 72.9531 443.656 73.4531C442.188 73.9844 440.578 74.25 438.828 74.25C436.734 74.25 434.781 73.875 432.969 73.125C431.188 72.4062 429.734 71.2031 428.609 69.5156C428.422 69.2344 428.328 68.9375 428.328 68.625C428.328 68.1562 428.5 67.75 428.844 67.4062C429.219 67.0312 429.641 66.8438 430.109 66.8438C430.609 66.8438 431.031 67.0156 431.375 67.3594C431.406 67.4219 431.516 67.5312 431.703 67.6875C431.891 67.8125 432.109 67.9688 432.359 68.1562C432.641 68.3125 432.953 68.4531 433.297 68.5781C433.672 68.7031 434.047 68.7656 434.422 68.7656C435.172 68.7656 435.797 68.6094 436.297 68.2969C436.828 67.9844 437.25 67.6094 437.562 67.1719C437.875 66.7031 438.094 66.2188 438.219 65.7188C438.375 65.1875 438.453 64.7344 438.453 64.3594C438.453 63.5781 438.328 62.7969 438.078 62.0156C437.828 61.2344 437.5 60.4531 437.094 59.6719C436.719 58.8906 436.297 58.0938 435.828 57.2812C435.391 56.4375 434.984 55.5625 434.609 54.6562ZM457.484 68.0156C457.984 66.9531 458.562 65.8125 459.219 64.5938C459.875 63.3438 460.578 62.0781 461.328 60.7969C462.078 59.4844 462.875 58.1875 463.719 56.9062C464.562 55.625 465.438 54.4219 466.344 53.2969C467.25 52.2031 468.156 51.4219 469.062 50.9531C470 50.4531 470.875 50.2031 471.688 50.2031C472.5 50.2031 473.203 50.375 473.797 50.7188C474.422 51.0312 474.922 51.4688 475.297 52.0312C475.703 52.5938 476 53.25 476.188 54C476.406 54.75 476.516 55.5625 476.516 56.4375C476.516 57.1562 476.438 58.125 476.281 59.3438C476.156 60.5312 476.094 61.7812 476.094 63.0938C476.094 63.8438 476.125 64.5938 476.188 65.3438C476.281 66.0625 476.422 66.7188 476.609 67.3125C476.828 67.875 477.141 68.3438 477.547 68.7188C477.953 69.0625 478.484 69.2344 479.141 69.2344C479.891 69.2344 480.641 69.0312 481.391 68.625C482.141 68.1875 482.875 67.625 483.594 66.9375C484.312 66.2188 485 65.4375 485.656 64.5938C486.312 63.7188 486.906 62.8594 487.438 62.0156C487.969 61.1406 488.438 60.3125 488.844 59.5312C489.25 58.7188 489.578 58.0469 489.828 57.5156C490.141 56.7969 490.688 56.4375 491.469 56.4375C492 56.4375 492.422 56.625 492.734 57C493.047 57.375 493.203 57.7812 493.203 58.2188C493.203 58.4688 493.156 58.7031 493.062 58.9219C492.938 59.1719 492.688 59.6875 492.312 60.4688C491.969 61.25 491.484 62.1562 490.859 63.1875C490.266 64.2188 489.562 65.2969 488.75 66.4219C487.938 67.5469 487.031 68.5938 486.031 69.5625C485.062 70.5 484 71.2812 482.844 71.9062C481.719 72.5 480.531 72.7969 479.281 72.7969C477.844 72.7969 476.688 72.5 475.812 71.9062C474.938 71.2812 474.25 70.5 473.75 69.5625C473.281 68.625 472.953 67.5781 472.766 66.4219C472.609 65.2656 472.531 64.1406 472.531 63.0469C472.531 62.4844 472.547 61.8906 472.578 61.2656C472.641 60.6094 472.703 59.9688 472.766 59.3438C472.828 58.7188 472.875 58.1406 472.906 57.6094C472.969 57.0469 473 56.5781 473 56.2031C473 55.2344 472.859 54.5781 472.578 54.2344C472.328 53.8906 472.031 53.7188 471.688 53.7188C471.188 53.7188 470.609 54.0156 469.953 54.6094C469.328 55.1719 468.656 55.9219 467.938 56.8594C467.25 57.7969 466.547 58.8594 465.828 60.0469C465.141 61.2031 464.469 62.3594 463.812 63.5156C463.156 64.6719 462.562 65.7812 462.031 66.8438C461.5 67.875 461.062 68.7344 460.719 69.4219C460.062 70.7344 459.391 71.6094 458.703 72.0469C458.047 72.5156 457.453 72.75 456.922 72.75C455.953 72.75 455.203 72.375 454.672 71.625C454.172 70.8438 453.922 69.9062 453.922 68.8125V65.8594C453.922 59.9531 453.922 54.3281 453.922 48.9844C453.953 43.6094 454.031 38.625 454.156 34.0312C454.312 29.4062 454.547 25.2344 454.859 21.5156C455.203 17.7656 455.703 14.5781 456.359 11.9531C457.016 9.29687 457.844 7.25 458.844 5.8125C459.875 4.375 461.156 3.65625 462.688 3.65625C464 3.65625 465.109 4.01563 466.016 4.73438C466.922 5.45312 467.656 6.4375 468.219 7.6875C468.781 8.90625 469.188 10.3438 469.438 12C469.688 13.625 469.812 15.3438 469.812 17.1562C469.812 20.8438 469.469 24.4688 468.781 28.0312C468.125 31.5625 467.234 35.0156 466.109 38.3906C464.984 41.7656 463.672 45.0625 462.172 48.2812C460.672 51.4688 459.094 54.5781 457.438 57.6094C457.438 58.1719 457.438 58.8438 457.438 59.625C457.438 60.4062 457.438 61.1875 457.438 61.9688C457.438 62.75 457.438 63.4844 457.438 64.1719C457.438 64.8594 457.438 65.4062 457.438 65.8125L457.484 68.0156ZM457.484 50.7188C458.797 47.8438 459.984 45.0469 461.047 42.3281C462.141 39.5781 463.062 36.8438 463.812 34.125C464.594 31.4062 465.203 28.6562 465.641 25.875C466.078 23.0625 466.297 20.1406 466.297 17.1094C466.297 16.6094 466.266 15.8125 466.203 14.7188C466.172 13.625 466.031 12.5156 465.781 11.3906C465.562 10.2656 465.203 9.28125 464.703 8.4375C464.234 7.59375 463.562 7.17188 462.688 7.17188C462 7.17188 461.406 7.64062 460.906 8.57812C460.406 9.48437 459.969 10.7344 459.594 12.3281C459.219 13.8906 458.906 15.7188 458.656 17.8125C458.406 19.9062 458.203 22.125 458.047 24.4688C457.891 26.8125 457.766 29.2188 457.672 31.6875C457.609 34.1562 457.562 36.5625 457.531 38.9062C457.5 41.2188 457.484 43.3906 457.484 45.4219C457.484 47.4531 457.484 49.2188 457.484 50.7188ZM495.078 54.6562C494.891 55.1562 494.656 55.7188 494.375 56.3438C494.125 56.9688 493.828 57.625 493.484 58.3125C493.203 58.8438 492.906 59.2656 492.594 59.5781C492.312 59.8594 491.938 60 491.469 60C490.938 60 490.516 59.8438 490.203 59.5312C489.891 59.1875 489.734 58.7969 489.734 58.3594C489.734 58.2031 489.75 58.0781 489.781 57.9844C489.812 57.8594 489.891 57.6719 490.016 57.4219C490.828 55.8594 491.422 54.5 491.797 53.3438C492.203 52.1562 492.531 50.9219 492.781 49.6406C492.562 48.9219 492.406 48.3125 492.312 47.8125C492.219 47.3125 492.172 46.7969 492.172 46.2656C492.172 45.2344 492.391 44.4062 492.828 43.7812C493.266 43.125 493.875 42.7969 494.656 42.7969C495.375 42.7969 495.938 43.1094 496.344 43.7344C496.781 44.3594 497 45.125 497 46.0312C497 46.5312 496.953 47.0312 496.859 47.5312C496.766 48.0312 496.641 48.6562 496.484 49.4062C497.203 51.1875 497.922 52.7656 498.641 54.1406C499.359 55.5156 500 56.7812 500.562 57.9375C501.125 59.0625 501.578 60.125 501.922 61.125C502.297 62.125 502.484 63.125 502.484 64.125C502.484 65.4375 502.219 66.6875 501.688 67.875C501.156 69.0625 500.281 70.0625 499.062 70.875C499.219 70.9062 499.375 70.9219 499.531 70.9219C499.688 70.9219 499.844 70.9219 500 70.9219C501.781 70.9219 503.422 70.5156 504.922 69.7031C506.422 68.8906 507.766 67.8438 508.953 66.5625C510.172 65.25 511.25 63.8125 512.188 62.25C513.125 60.6562 513.938 59.0781 514.625 57.5156C514.938 56.7969 515.375 56.4375 515.938 56.4375C516.469 56.4375 516.875 56.625 517.156 57C517.469 57.375 517.625 57.7812 517.625 58.2188C517.625 58.4688 517.578 58.7031 517.484 58.9219C517.141 59.7656 516.688 60.7344 516.125 61.8281C515.594 62.8906 514.938 64 514.156 65.1562C513.406 66.2812 512.531 67.3906 511.531 68.4844C510.531 69.5781 509.406 70.5625 508.156 71.4375C506.938 72.2812 505.594 72.9531 504.125 73.4531C502.656 73.9844 501.047 74.25 499.297 74.25C497.203 74.25 495.25 73.875 493.438 73.125C491.656 72.4062 490.203 71.2031 489.078 69.5156C488.891 69.2344 488.797 68.9375 488.797 68.625C488.797 68.1562 488.969 67.75 489.312 67.4062C489.688 67.0312 490.109 66.8438 490.578 66.8438C491.078 66.8438 491.5 67.0156 491.844 67.3594C491.875 67.4219 491.984 67.5312 492.172 67.6875C492.359 67.8125 492.578 67.9688 492.828 68.1562C493.109 68.3125 493.422 68.4531 493.766 68.5781C494.141 68.7031 494.516 68.7656 494.891 68.7656C495.641 68.7656 496.266 68.6094 496.766 68.2969C497.297 67.9844 497.719 67.6094 498.031 67.1719C498.344 66.7031 498.562 66.2188 498.688 65.7188C498.844 65.1875 498.922 64.7344 498.922 64.3594C498.922 63.5781 498.797 62.7969 498.547 62.0156C498.297 61.2344 497.969 60.4531 497.562 59.6719C497.188 58.8906 496.766 58.0938 496.297 57.2812C495.859 56.4375 495.453 55.5625 495.078 54.6562ZM517.953 68.0156C518.453 66.9531 519.031 65.8125 519.688 64.5938C520.344 63.3438 521.047 62.0781 521.797 60.7969C522.547 59.4844 523.344 58.1875 524.188 56.9062C525.031 55.625 525.906 54.4219 526.812 53.2969C527.719 52.2031 528.625 51.4219 529.531 50.9531C530.469 50.4531 531.344 50.2031 532.156 50.2031C532.969 50.2031 533.672 50.375 534.266 50.7188C534.891 51.0312 535.391 51.4688 535.766 52.0312C536.172 52.5938 536.469 53.25 536.656 54C536.875 54.75 536.984 55.5625 536.984 56.4375C536.984 57.1562 536.906 58.125 536.75 59.3438C536.625 60.5312 536.562 61.7812 536.562 63.0938C536.562 63.8438 536.594 64.5938 536.656 65.3438C536.75 66.0625 536.891 66.7188 537.078 67.3125C537.297 67.875 537.609 68.3438 538.016 68.7188C538.422 69.0625 538.953 69.2344 539.609 69.2344C540.359 69.2344 541.109 69.0312 541.859 68.625C542.609 68.1875 543.344 67.625 544.062 66.9375C544.781 66.2188 545.469 65.4375 546.125 64.5938C546.781 63.7188 547.375 62.8594 547.906 62.0156C548.438 61.1406 548.906 60.3125 549.312 59.5312C549.719 58.7188 550.047 58.0469 550.297 57.5156C550.609 56.7969 551.156 56.4375 551.938 56.4375C552.469 56.4375 552.891 56.625 553.203 57C553.516 57.375 553.672 57.7812 553.672 58.2188C553.672 58.4688 553.625 58.7031 553.531 58.9219C553.406 59.1719 553.156 59.6875 552.781 60.4688C552.438 61.25 551.953 62.1562 551.328 63.1875C550.734 64.2188 550.031 65.2969 549.219 66.4219C548.406 67.5469 547.5 68.5938 546.5 69.5625C545.531 70.5 544.469 71.2812 543.312 71.9062C542.188 72.5 541 72.7969 539.75 72.7969C538.312 72.7969 537.156 72.5 536.281 71.9062C535.406 71.2812 534.719 70.5 534.219 69.5625C533.75 68.625 533.422 67.5781 533.234 66.4219C533.078 65.2656 533 64.1406 533 63.0469C533 62.4844 533.016 61.8906 533.047 61.2656C533.109 60.6094 533.172 59.9688 533.234 59.3438C533.297 58.7188 533.344 58.1406 533.375 57.6094C533.438 57.0469 533.469 56.5781 533.469 56.2031C533.469 55.2344 533.328 54.5781 533.047 54.2344C532.797 53.8906 532.5 53.7188 532.156 53.7188C531.656 53.7188 531.078 54.0156 530.422 54.6094C529.797 55.1719 529.125 55.9219 528.406 56.8594C527.719 57.7969 527.016 58.8594 526.297 60.0469C525.609 61.2031 524.938 62.3594 524.281 63.5156C523.625 64.6719 523.031 65.7812 522.5 66.8438C521.969 67.875 521.531 68.7344 521.188 69.4219C520.531 70.7344 519.859 71.6094 519.172 72.0469C518.516 72.5156 517.922 72.75 517.391 72.75C516.422 72.75 515.672 72.375 515.141 71.625C514.641 70.8438 514.391 69.9062 514.391 68.8125V65.8594C514.391 59.9531 514.391 54.3281 514.391 48.9844C514.422 43.6094 514.5 38.625 514.625 34.0312C514.781 29.4062 515.016 25.2344 515.328 21.5156C515.672 17.7656 516.172 14.5781 516.828 11.9531C517.484 9.29687 518.312 7.25 519.312 5.8125C520.344 4.375 521.625 3.65625 523.156 3.65625C524.469 3.65625 525.578 4.01563 526.484 4.73438C527.391 5.45312 528.125 6.4375 528.688 7.6875C529.25 8.90625 529.656 10.3438 529.906 12C530.156 13.625 530.281 15.3438 530.281 17.1562C530.281 20.8438 529.938 24.4688 529.25 28.0312C528.594 31.5625 527.703 35.0156 526.578 38.3906C525.453 41.7656 524.141 45.0625 522.641 48.2812C521.141 51.4688 519.562 54.5781 517.906 57.6094C517.906 58.1719 517.906 58.8438 517.906 59.625C517.906 60.4062 517.906 61.1875 517.906 61.9688C517.906 62.75 517.906 63.4844 517.906 64.1719C517.906 64.8594 517.906 65.4062 517.906 65.8125L517.953 68.0156ZM517.953 50.7188C519.266 47.8438 520.453 45.0469 521.516 42.3281C522.609 39.5781 523.531 36.8438 524.281 34.125C525.062 31.4062 525.672 28.6562 526.109 25.875C526.547 23.0625 526.766 20.1406 526.766 17.1094C526.766 16.6094 526.734 15.8125 526.672 14.7188C526.641 13.625 526.5 12.5156 526.25 11.3906C526.031 10.2656 525.672 9.28125 525.172 8.4375C524.703 7.59375 524.031 7.17188 523.156 7.17188C522.469 7.17188 521.875 7.64062 521.375 8.57812C520.875 9.48437 520.438 10.7344 520.062 12.3281C519.688 13.8906 519.375 15.7188 519.125 17.8125C518.875 19.9062 518.672 22.125 518.516 24.4688C518.359 26.8125 518.234 29.2188 518.141 31.6875C518.078 34.1562 518.031 36.5625 518 38.9062C517.969 41.2188 517.953 43.3906 517.953 45.4219C517.953 47.4531 517.953 49.2188 517.953 50.7188ZM557.984 35.2031C557.984 36.3906 557.562 37.4062 556.719 38.25C555.906 39.0625 554.906 39.4688 553.719 39.4688C552.531 39.4688 551.516 39.0625 550.672 38.25C549.859 37.4062 549.453 36.3906 549.453 35.2031C549.453 34.6094 549.562 34.0625 549.781 33.5625C550 33.0312 550.297 32.5781 550.672 32.2031C551.078 31.7969 551.531 31.4844 552.031 31.2656C552.562 31.0469 553.125 30.9375 553.719 30.9375C554.312 30.9375 554.859 31.0469 555.359 31.2656C555.891 31.4844 556.344 31.7969 556.719 32.2031C557.125 32.5781 557.438 33.0312 557.656 33.5625C557.875 34.0625 557.984 34.6094 557.984 35.2031ZM550.391 62.6719C550.391 58.1719 550.672 53.6875 551.234 49.2188C551.297 48.7812 551.484 48.4062 551.797 48.0938C552.141 47.75 552.578 47.5781 553.109 47.5781C553.578 47.5781 553.969 47.7656 554.281 48.1406C554.594 48.4844 554.75 48.8906 554.75 49.3594C554.75 49.5469 554.703 50.1094 554.609 51.0469C554.547 51.9844 554.453 53.1094 554.328 54.4219C554.234 55.7031 554.141 57.0781 554.047 58.5469C553.984 59.9844 553.953 61.3125 553.953 62.5312C553.953 64.1875 554.109 65.5312 554.422 66.5625C554.766 67.5625 555.188 68.3438 555.688 68.9062C556.219 69.4688 556.766 69.8438 557.328 70.0312C557.922 70.2188 558.484 70.3125 559.016 70.3125C559.891 70.3125 560.797 70 561.734 69.375C562.672 68.75 563.625 67.875 564.594 66.75C565.594 65.625 566.594 64.2812 567.594 62.7188C568.594 61.125 569.578 59.3594 570.547 57.4219C570.703 57.1094 570.922 56.875 571.203 56.7188C571.484 56.5312 571.797 56.4375 572.141 56.4375C572.641 56.4375 573.047 56.625 573.359 57C573.703 57.375 573.875 57.7812 573.875 58.2188C573.875 58.5312 573.812 58.7969 573.688 59.0156C573.312 59.7344 572.844 60.6094 572.281 61.6406C571.719 62.6719 571.078 63.7344 570.359 64.8281C569.641 65.9219 568.844 67.0156 567.969 68.1094C567.125 69.1719 566.219 70.1406 565.25 71.0156C564.281 71.8594 563.266 72.5469 562.203 73.0781C561.141 73.6094 560.062 73.875 558.969 73.875C557.562 73.875 556.328 73.5781 555.266 72.9844C554.203 72.3906 553.297 71.5938 552.547 70.5938C551.828 69.5938 551.281 68.4219 550.906 67.0781C550.562 65.7031 550.391 64.2344 550.391 62.6719ZM555.359 35.2031C555.359 34.7656 555.188 34.3906 554.844 34.0781C554.531 33.7344 554.156 33.5625 553.719 33.5625C553.281 33.5625 552.906 33.7344 552.594 34.0781C552.281 34.3906 552.125 34.7656 552.125 35.2031C552.125 35.6406 552.281 36.0156 552.594 36.3281C552.906 36.6406 553.281 36.7969 553.719 36.7969C554.156 36.7969 554.531 36.6406 554.844 36.3281C555.188 36.0156 555.359 35.6406 555.359 35.2031ZM575.422 52.7344C575.297 53.5781 575.141 54.375 574.953 55.125C574.766 55.8438 574.578 56.4844 574.391 57.0469C574.234 57.5781 574.094 58.0156 573.969 58.3594C573.844 58.7031 573.766 58.8906 573.734 58.9219C573.422 59.6406 572.875 60 572.094 60C571.656 60 571.25 59.8438 570.875 59.5312C570.5 59.1875 570.312 58.7656 570.312 58.2656C570.312 58.0781 570.344 57.9375 570.406 57.8438C570.469 57.75 570.562 57.5625 570.688 57.2812C570.812 57 570.969 56.5312 571.156 55.875C571.344 55.2188 571.578 54.2031 571.859 52.8281C571.328 52.8281 570.781 52.8125 570.219 52.7812C569.656 52.75 569.141 52.6406 568.672 52.4531C568.172 52.2656 567.766 51.9688 567.453 51.5625C567.141 51.1562 566.984 50.5938 566.984 49.875C566.984 49.3438 567.141 48.625 567.453 47.7188C567.734 46.8125 568.125 45.9219 568.625 45.0469C569.125 44.1719 569.688 43.4219 570.312 42.7969C570.938 42.1406 571.562 41.8125 572.188 41.8125C572.906 41.8125 573.484 42.0781 573.922 42.6094C574.391 43.1406 574.75 43.7969 575 44.5781C575.25 45.3281 575.422 46.125 575.516 46.9688C575.641 47.8125 575.703 48.5469 575.703 49.1719C576.234 49.1719 576.75 49.1719 577.25 49.1719C577.781 49.1406 578.281 49.125 578.75 49.125C580.531 49.125 581.891 49.5156 582.828 50.2969C583.766 51.0781 584.234 52.3594 584.234 54.1406C584.234 54.8594 584.188 55.6094 584.094 56.3906C584 57.1719 583.891 57.9844 583.766 58.8281C583.641 59.6406 583.531 60.4531 583.438 61.2656C583.344 62.0781 583.297 62.875 583.297 63.6562C583.297 64.7812 583.453 65.7188 583.766 66.4688C584.078 67.1875 584.469 67.7656 584.938 68.2031C585.406 68.6406 585.906 68.9531 586.438 69.1406C586.969 69.2969 587.453 69.375 587.891 69.375C589.234 69.375 590.5 68.9375 591.688 68.0625C592.875 67.1875 593.969 66.1406 594.969 64.9219C595.969 63.6719 596.859 62.3594 597.641 60.9844C598.453 59.6094 599.125 58.4062 599.656 57.375C599.812 57.0938 600.031 56.875 600.312 56.7188C600.594 56.5625 600.891 56.4844 601.203 56.4844C601.766 56.4844 602.203 56.6719 602.516 57.0469C602.828 57.3906 602.984 57.7812 602.984 58.2188C602.984 58.5312 602.922 58.8125 602.797 59.0625C602.078 60.3438 601.234 61.7969 600.266 63.4219C599.328 65.0156 598.25 66.5156 597.031 67.9219C595.812 69.3281 594.438 70.5156 592.906 71.4844C591.406 72.4531 589.75 72.9375 587.938 72.9375C586.812 72.9375 585.75 72.7188 584.75 72.2812C583.75 71.875 582.875 71.2812 582.125 70.5C581.406 69.6875 580.828 68.7031 580.391 67.5469C579.953 66.3594 579.734 65.0312 579.734 63.5625C579.734 62 579.891 60.4531 580.203 58.9219C580.516 57.3594 580.672 55.875 580.672 54.4688C580.672 53.875 580.531 53.4375 580.25 53.1562C580 52.8438 579.422 52.6875 578.516 52.6875C578.078 52.6875 577.594 52.6875 577.062 52.6875C576.562 52.6875 576.016 52.7031 575.422 52.7344ZM572.281 49.2656C572.281 49.0469 572.266 48.7656 572.234 48.4219C572.234 48.0469 572.203 47.6875 572.141 47.3438C572.109 47 572.047 46.7031 571.953 46.4531C571.891 46.2031 571.812 46.0781 571.719 46.0781C571.625 46.0781 571.5 46.2031 571.344 46.4531C571.219 46.6719 571.078 46.9531 570.922 47.2969C570.766 47.6094 570.625 47.9531 570.5 48.3281C570.375 48.7031 570.281 49.0156 570.219 49.2656H572.281Z" fill="black"/>
</svg>
