<svg width="430" height="97" viewBox="0 0 430 97" fill="none" xmlns="http://www.w3.org/2000/svg">
<path d="M111.656 28.625C110.312 30.5938 108.812 32.9531 107.156 35.7031C105.5 38.4531 103.734 41.5312 101.859 44.9375C100.266 47.7812 98.6875 50.8125 97.125 54.0312C95.5938 57.2188 94.125 60.3906 92.7188 63.5469C91.3125 66.6719 90.0156 69.6875 88.8281 72.5938C87.6406 75.4688 86.6094 78.0156 85.7344 80.2344C84.8594 82.4219 84.1719 84.1875 83.6719 85.5312C83.1719 86.8438 82.9219 87.5156 82.9219 87.5469C82.6094 88.3281 82.0469 88.7188 81.2344 88.7188C80.8281 88.7188 80.4688 88.5938 80.1562 88.3438C79.8438 88.0625 79.6406 87.7188 79.5469 87.3125C79.5469 87.2812 79.3906 86.625 79.0781 85.3438C78.7969 84.0312 78.4062 82.2969 77.9062 80.1406C77.4062 77.9531 76.8281 75.4531 76.1719 72.6406C75.5469 69.7969 74.875 66.8438 74.1562 63.7812C73.4688 60.6875 72.7656 57.5625 72.0469 54.4062C71.3281 51.25 70.6562 48.25 70.0312 45.4062C67.9375 51.3125 65.8281 56.5469 63.7031 61.1094C61.6094 65.6406 59.4531 69.5938 57.2344 72.9688C55.0156 76.3125 52.7188 79.125 50.3438 81.4062C48 83.6875 45.5312 85.5312 42.9375 86.9375C40.375 88.3125 37.6719 89.2969 34.8281 89.8906C32.0156 90.4844 29.0312 90.7812 25.875 90.7812C24.25 90.7812 22.5156 90.5938 20.6719 90.2188C18.8281 89.875 17 89.3281 15.1875 88.5781C13.375 87.8281 11.6406 86.8906 9.98438 85.7656C8.32812 84.6406 6.85938 83.3125 5.57812 81.7812C4.29688 80.2188 3.28125 78.4688 2.53125 76.5312C1.78125 74.5625 1.40625 72.375 1.40625 69.9688C1.40625 67.4375 1.9375 65.125 3 63.0312C4.0625 60.9062 5.5 59.0938 7.3125 57.5938C9.125 56.0625 11.2188 54.875 13.5938 54.0312C16 53.1875 18.5312 52.7656 21.1875 52.7656C23.125 52.7656 24.8594 52.9375 26.3906 53.2812C27.9531 53.5938 29.3281 54 30.5156 54.5C31.7031 55 32.7188 55.5469 33.5625 56.1406C34.4062 56.7344 35.1094 57.2812 35.6719 57.7812C36.2344 58.2812 36.6406 58.7188 36.8906 59.0938C37.1406 59.4375 37.2812 59.6094 37.3125 59.6094C37.5 59.9531 37.5938 60.2812 37.5938 60.5938C37.5938 61.0312 37.4219 61.4375 37.0781 61.8125C36.7656 62.1875 36.3438 62.375 35.8125 62.375C35.1875 62.375 34.6875 62.1094 34.3125 61.5781C34.2812 61.5469 34.0312 61.2656 33.5625 60.7344C33.0938 60.1719 32.3281 59.5625 31.2656 58.9062C30.2031 58.25 28.8281 57.6562 27.1406 57.125C25.4844 56.5938 23.4531 56.3281 21.0469 56.3281C18.8594 56.3281 16.7812 56.6719 14.8125 57.3594C12.875 58.0156 11.1719 58.9531 9.70312 60.1719C8.26562 61.3906 7.10938 62.8438 6.23438 64.5312C5.39062 66.1875 4.96875 68.0156 4.96875 70.0156C4.96875 71.9844 5.29688 73.7812 5.95312 75.4062C6.60938 77.0312 7.48438 78.4844 8.57812 79.7656C9.67188 81.0469 10.9375 82.1562 12.375 83.0938C13.8125 84.0312 15.3125 84.8125 16.875 85.4375C18.4375 86.0312 20 86.4844 21.5625 86.7969C23.1562 87.0781 24.6562 87.2188 26.0625 87.2188C28.4375 87.2188 30.75 87.0469 33 86.7031C35.2812 86.3281 37.5156 85.6406 39.7031 84.6406C41.9219 83.6406 44.0938 82.2656 46.2188 80.5156C48.3438 78.7656 50.4531 76.4844 52.5469 73.6719C54.6406 70.8594 56.7031 67.4688 58.7344 63.5C60.7969 59.5312 62.8594 54.8438 64.9219 49.4375C65.5469 47.8125 66.1562 46.0625 66.75 44.1875C67.3438 42.3125 67.9531 40.4219 68.5781 38.5156C68.0469 35.7656 67.6562 33.4219 67.4062 31.4844C67.1875 29.5469 67.0781 27.9375 67.0781 26.6562C67.0781 25.2813 67.1875 24.1875 67.4062 23.375C67.625 22.5625 67.9062 21.9531 68.25 21.5469C68.5938 21.1094 68.9688 20.8438 69.375 20.75C69.7812 20.625 70.1719 20.5625 70.5469 20.5625C70.8594 20.5625 71.2031 20.625 71.5781 20.75C71.9844 20.875 72.3438 21.1563 72.6562 21.5938C73 22 73.2812 22.6094 73.5 23.4219C73.7188 24.2344 73.8281 25.3281 73.8281 26.7031C73.8281 28.2031 73.6875 29.9375 73.4062 31.9062C73.125 33.875 72.7031 36.0469 72.1406 38.4219C72.5469 40.3281 73.0156 42.4531 73.5469 44.7969C74.0781 47.1406 74.625 49.5781 75.1875 52.1094C75.75 54.6094 76.3281 57.1719 76.9219 59.7969C77.5156 62.4219 78.0938 64.9844 78.6562 67.4844C79.2188 69.9844 79.75 72.375 80.25 74.6562C80.7812 76.9375 81.2656 79 81.7031 80.8438C82.5469 78.7188 83.5781 76.1562 84.7969 73.1562C86.0156 70.125 87.375 66.9219 88.875 63.5469C90.375 60.1406 91.9531 56.6875 93.6094 53.1875C95.2969 49.6562 97.0156 46.3281 98.7656 43.2031C101.234 38.7656 103.5 34.9688 105.562 31.8125C107.625 28.625 109.406 26 110.906 23.9375C112.406 21.875 113.578 20.3594 114.422 19.3906C115.297 18.3906 115.766 17.8438 115.828 17.75C116.172 17.4063 116.594 17.2344 117.094 17.2344C117.625 17.2344 118.047 17.4219 118.359 17.7969C118.703 18.1406 118.875 18.5469 118.875 19.0156C118.875 19.2344 118.828 19.4531 118.734 19.6719C118.734 19.7031 118.547 20.1719 118.172 21.0781C117.828 21.9531 117.375 23.1719 116.812 24.7344C116.281 26.2656 115.688 28.0781 115.031 30.1719C114.375 32.2344 113.734 34.4688 113.109 36.875C112.484 39.25 111.922 41.75 111.422 44.375C110.953 46.9688 110.609 49.5625 110.391 52.1562C110.297 53.3438 110.219 54.5938 110.156 55.9062C110.094 57.1875 110.062 58.4844 110.062 59.7969C110.062 61.8594 110.156 63.9375 110.344 66.0312C110.531 68.125 110.844 70.1406 111.281 72.0781C111.719 74.0156 112.312 75.8438 113.062 77.5625C113.812 79.25 114.734 80.7344 115.828 82.0156C116.922 83.2969 118.219 84.3281 119.719 85.1094C121.25 85.8906 123.016 86.3125 125.016 86.375C125.516 86.4062 125.906 86.625 126.188 87.0312C126.5 87.4062 126.656 87.8125 126.656 88.25C126.656 88.6875 126.484 89.0781 126.141 89.4219C125.797 89.7656 125.391 89.9375 124.922 89.9375C124.422 89.9375 123.922 89.8906 123.422 89.7969C121.172 89.4844 119.188 88.8438 117.469 87.875C115.75 86.875 114.266 85.6562 113.016 84.2188C111.766 82.75 110.719 81.0938 109.875 79.25C109.062 77.375 108.406 75.375 107.906 73.25C107.406 71.125 107.047 68.9219 106.828 66.6406C106.641 64.3281 106.547 62 106.547 59.6562C106.547 56.875 106.688 54.0938 106.969 51.3125C107.25 48.5312 107.625 45.8281 108.094 43.2031C108.562 40.5469 109.109 37.9844 109.734 35.5156C110.359 33.0469 111 30.75 111.656 28.625ZM144.938 83.75C143.844 85.5312 142.562 86.9375 141.094 87.9688C139.656 89 138.203 89.5156 136.734 89.5156C135.547 89.5156 134.484 89.2969 133.547 88.8594C132.609 88.4219 131.797 87.8125 131.109 87.0312C130.422 86.2188 129.891 85.25 129.516 84.125C129.172 83 129 81.7344 129 80.3281C129 78.1406 129.203 76.2031 129.609 74.5156C130.047 72.8281 130.516 71.4219 131.016 70.2969C131.516 69.1406 131.984 68.2656 132.422 67.6719C132.859 67.0781 133.078 66.7812 133.078 66.7812C133.234 66.5938 133.422 66.4531 133.641 66.3594C133.891 66.2656 134.141 66.2188 134.391 66.2188C134.891 66.2188 135.297 66.4062 135.609 66.7812C135.953 67.125 136.125 67.5312 136.125 68C136.125 68.1875 136.078 68.375 135.984 68.5625C135.922 68.75 135.844 68.9375 135.75 69.125C135.594 69.4062 135.344 69.8438 135 70.4375C134.656 71 134.297 71.75 133.922 72.6875C133.547 73.625 133.219 74.7344 132.938 76.0156C132.656 77.2656 132.516 78.7031 132.516 80.3281C132.516 82.1719 132.875 83.5781 133.594 84.5469C134.344 85.4844 135.391 85.9531 136.734 85.9531C137.297 85.9531 137.938 85.7812 138.656 85.4375C139.406 85.0625 140.125 84.5 140.812 83.75C141.531 83 142.156 82.0469 142.688 80.8906C143.219 79.7344 143.562 78.375 143.719 76.8125L144.422 68.75C144.484 68.2812 144.688 67.8906 145.031 67.5781C145.375 67.2656 145.781 67.1094 146.25 67.1094C146.781 67.1094 147.203 67.3125 147.516 67.7188C147.828 68.0938 147.984 68.5312 147.984 69.0312L147.375 76.8125C147.312 77.4688 147.328 78.3281 147.422 79.3906C147.547 80.4531 147.781 81.5 148.125 82.5312C148.469 83.5625 148.984 84.4531 149.672 85.2031C150.359 85.9219 151.266 86.2812 152.391 86.2812C153.203 86.2812 154 86.0781 154.781 85.6719C155.562 85.2344 156.312 84.6719 157.031 83.9844C157.75 83.2969 158.406 82.5312 159 81.6875C159.625 80.8125 160.188 79.9375 160.688 79.0625C161.219 78.1875 161.672 77.3594 162.047 76.5781C162.422 75.7656 162.734 75.0781 162.984 74.5156C163.141 74.1719 163.359 73.9062 163.641 73.7188C163.922 73.5312 164.234 73.4375 164.578 73.4375C165.141 73.4375 165.578 73.625 165.891 74C166.203 74.375 166.359 74.7812 166.359 75.2188C166.359 75.4688 166.312 75.7031 166.219 75.9219C166.094 76.1719 165.844 76.7031 165.469 77.5156C165.125 78.2969 164.656 79.2031 164.062 80.2344C163.5 81.2344 162.812 82.2969 162 83.4219C161.188 84.5469 160.281 85.5938 159.281 86.5625C158.281 87.5 157.188 88.2812 156 88.9062C154.844 89.5 153.594 89.7969 152.25 89.7969C150.406 89.7969 148.875 89.2812 147.656 88.25C146.438 87.1875 145.531 85.6875 144.938 83.75ZM202.547 76.0156C202.453 76.2031 202.25 76.5938 201.938 77.1875C201.625 77.75 201.219 78.4219 200.719 79.2031C200.219 79.9531 199.625 80.7656 198.938 81.6406C198.25 82.4844 197.5 83.2656 196.688 83.9844C195.875 84.7031 195 85.2969 194.062 85.7656C193.125 86.2344 192.156 86.4688 191.156 86.4688C189.531 86.4688 188.156 86.1875 187.031 85.625C185.906 85.0312 184.984 84.375 184.266 83.6562C183.766 84.75 183.156 85.75 182.438 86.6562C181.719 87.5625 180.922 88.3438 180.047 89C179.172 89.6875 178.234 90.2188 177.234 90.5938C176.266 90.9688 175.266 91.1562 174.234 91.1562C172.328 91.1562 170.703 90.5938 169.359 89.4688C168.016 88.3438 166.891 86.8438 165.984 84.9688C165.109 83.0625 164.422 80.8594 163.922 78.3594C163.422 75.8594 163.031 73.2344 162.75 70.4844C162.5 67.7344 162.344 64.9531 162.281 62.1406C162.219 59.3281 162.188 56.6562 162.188 54.125C162.188 49.2812 162.328 45.0938 162.609 41.5625C162.891 38 163.266 34.9844 163.734 32.5156C164.234 30.0156 164.797 28 165.422 26.4688C166.078 24.9063 166.766 23.7031 167.484 22.8594C168.203 21.9844 168.938 21.3906 169.688 21.0781C170.438 20.7656 171.172 20.6094 171.891 20.6094C173.047 20.6094 174.062 20.9531 174.938 21.6406C175.844 22.3281 176.594 23.2969 177.188 24.5469C177.812 25.7656 178.281 27.25 178.594 29C178.906 30.75 179.062 32.6719 179.062 34.7656C179.062 38.1094 178.703 41.5625 177.984 45.125C177.266 48.6875 176.328 52.25 175.172 55.8125C174.047 59.3438 172.781 62.8281 171.375 66.2656C169.969 69.6719 168.578 72.9062 167.203 75.9688C167.391 77.5 167.672 78.9688 168.047 80.375C168.422 81.75 168.906 82.9844 169.5 84.0781C170.094 85.1406 170.797 86 171.609 86.6562C172.422 87.2812 173.359 87.5938 174.422 87.5938C175.484 87.5938 176.484 87.2969 177.422 86.7031C178.359 86.0781 179.172 85.2812 179.859 84.3125C180.547 83.3125 181.078 82.1875 181.453 80.9375C181.859 79.6875 182.062 78.4062 182.062 77.0938C182.062 76.2188 181.969 75.3438 181.781 74.4688C181.625 73.5625 181.359 72.7656 180.984 72.0781C180.641 71.3594 180.203 70.7812 179.672 70.3438C179.141 69.9062 178.5 69.6875 177.75 69.6875C177.188 69.6875 176.75 69.8125 176.438 70.0625C176.125 70.2812 175.891 70.5469 175.734 70.8594C175.578 71.1406 175.484 71.4219 175.453 71.7031C175.422 71.9844 175.406 72.1719 175.406 72.2656C175.406 72.7031 175.5 73.1406 175.688 73.5781C175.875 74.0156 176.234 74.4062 176.766 74.75C177.297 75.125 177.562 75.6406 177.562 76.2969C177.562 76.8281 177.375 77.25 177 77.5625C176.656 77.875 176.266 78.0312 175.828 78.0312C175.203 78.0312 174.641 77.8438 174.141 77.4688C173.672 77.0938 173.266 76.625 172.922 76.0625C172.578 75.4688 172.312 74.8438 172.125 74.1875C171.938 73.5312 171.844 72.9219 171.844 72.3594C171.844 71.4531 172 70.625 172.312 69.875C172.625 69.0938 173.047 68.4375 173.578 67.9062C174.141 67.3438 174.766 66.9219 175.453 66.6406C176.172 66.3281 176.922 66.1719 177.703 66.1719C179.047 66.1719 180.203 66.4844 181.172 67.1094C182.172 67.7344 183 68.5625 183.656 69.5938C184.312 70.625 184.797 71.7969 185.109 73.1094C185.422 74.4219 185.578 75.75 185.578 77.0938C185.578 77.875 185.531 78.6406 185.438 79.3906C185.562 79.6406 185.766 79.9688 186.047 80.375C186.328 80.7812 186.703 81.1719 187.172 81.5469C187.641 81.9219 188.203 82.25 188.859 82.5312C189.516 82.8125 190.281 82.9531 191.156 82.9531C191.906 82.9531 192.672 82.6719 193.453 82.1094C194.266 81.5156 195.031 80.7969 195.75 79.9531C196.5 79.0781 197.188 78.1562 197.812 77.1875C198.438 76.1875 198.953 75.2656 199.359 74.4219C199.516 74.1094 199.734 73.875 200.016 73.7188C200.297 73.5312 200.609 73.4375 200.953 73.4375C201.484 73.4375 201.906 73.625 202.219 74C202.562 74.375 202.734 74.7969 202.734 75.2656C202.734 75.4531 202.672 75.7031 202.547 76.0156ZM166.312 69.9688C167.375 67.3438 168.453 64.5938 169.547 61.7188C170.641 58.8125 171.625 55.8594 172.5 52.8594C173.375 49.8594 174.094 46.8281 174.656 43.7656C175.219 40.7031 175.5 37.6875 175.5 34.7188C175.5 33.5938 175.438 32.4219 175.312 31.2031C175.219 29.9531 175.031 28.8125 174.75 27.7812C174.469 26.75 174.078 25.8906 173.578 25.2031C173.109 24.5156 172.5 24.1719 171.75 24.1719C171.5 24.1719 171.172 24.3438 170.766 24.6875C170.391 25 169.984 25.5781 169.547 26.4219C169.109 27.2344 168.672 28.375 168.234 29.8438C167.797 31.3125 167.391 33.1875 167.016 35.4688C166.672 37.7188 166.375 40.4375 166.125 43.625C165.906 46.8125 165.797 50.5625 165.797 54.875C165.797 56.3125 165.812 57.7812 165.844 59.2812C165.875 60.75 165.906 62.1562 165.938 63.5C166 64.8438 166.062 66.0781 166.125 67.2031C166.188 68.3281 166.25 69.25 166.312 69.9688ZM235.641 75.9219C235.516 76.1719 235.25 76.7031 234.844 77.5156C234.469 78.2969 233.969 79.2031 233.344 80.2344C232.75 81.2656 232.047 82.3438 231.234 83.4688C230.422 84.5938 229.516 85.625 228.516 86.5625C227.516 87.5 226.438 88.2812 225.281 88.9062C224.125 89.5 222.906 89.7969 221.625 89.7969C219.812 89.7969 218.281 89.2188 217.031 88.0625C215.812 86.9062 214.922 85.4531 214.359 83.7031C213.297 85.4844 212.031 86.9062 210.562 87.9688C209.094 89 207.625 89.5156 206.156 89.5156C205 89.5156 203.953 89.3125 203.016 88.9062C202.078 88.4688 201.281 87.875 200.625 87.125C199.969 86.3438 199.453 85.4375 199.078 84.4062C198.734 83.375 198.562 82.25 198.562 81.0312C198.562 78.5938 198.969 76.4531 199.781 74.6094C200.625 72.7344 201.688 71.1719 202.969 69.9219C204.25 68.6719 205.656 67.7344 207.188 67.1094C208.75 66.4844 210.25 66.1719 211.688 66.1719C212.656 66.1719 213.547 66.3125 214.359 66.5938C215.172 66.8438 215.859 67.125 216.422 67.4375C217.016 67.75 217.469 68.0469 217.781 68.3281C218.094 68.5781 218.266 68.7188 218.297 68.75C218.641 69.1562 218.812 69.5781 218.812 70.0156C218.812 70.4844 218.641 70.9062 218.297 71.2812C217.953 71.625 217.547 71.7969 217.078 71.7969C216.578 71.7969 216.156 71.625 215.812 71.2812C215.75 71.2188 215.609 71.1094 215.391 70.9531C215.172 70.7656 214.875 70.5781 214.5 70.3906C214.125 70.2031 213.672 70.0469 213.141 69.9219C212.641 69.7656 212.062 69.6875 211.406 69.6875C210.438 69.6875 209.406 69.9062 208.312 70.3438C207.219 70.7812 206.219 71.4688 205.312 72.4062C204.406 73.3125 203.641 74.4688 203.016 75.875C202.422 77.25 202.125 78.8906 202.125 80.7969C202.125 81.3906 202.188 82 202.312 82.625C202.438 83.2188 202.656 83.7656 202.969 84.2656C203.281 84.7656 203.703 85.1719 204.234 85.4844C204.766 85.7969 205.422 85.9531 206.203 85.9531C206.766 85.9531 207.406 85.7656 208.125 85.3906C208.875 85.0156 209.578 84.4375 210.234 83.6562C210.922 82.875 211.531 81.8906 212.062 80.7031C212.625 79.5156 213.016 78.1094 213.234 76.4844C213.297 76.0469 213.5 75.6875 213.844 75.4062C214.188 75.0938 214.594 74.9375 215.062 74.9375C215.5 74.9375 215.875 75.1094 216.188 75.4531C216.531 75.7969 216.719 76.1875 216.75 76.625C216.781 77.2188 216.844 78.0625 216.938 79.1562C217.031 80.2188 217.234 81.2812 217.547 82.3438C217.891 83.4062 218.391 84.3281 219.047 85.1094C219.703 85.8906 220.609 86.2812 221.766 86.2812C222.516 86.2812 223.25 86.0781 223.969 85.6719C224.719 85.2656 225.438 84.7344 226.125 84.0781C226.844 83.3906 227.516 82.625 228.141 81.7812C228.797 80.9062 229.391 80.0312 229.922 79.1562C230.453 78.2812 230.922 77.4375 231.328 76.625C231.734 75.8125 232.078 75.1094 232.359 74.5156C232.516 74.1719 232.734 73.9062 233.016 73.7188C233.328 73.5312 233.656 73.4375 234 73.4375C234.531 73.4375 234.953 73.6406 235.266 74.0469C235.609 74.4219 235.781 74.8281 235.781 75.2656C235.781 75.4844 235.734 75.7031 235.641 75.9219ZM237.609 71.6562C237.422 72.1562 237.188 72.7188 236.906 73.3438C236.656 73.9688 236.359 74.625 236.016 75.3125C235.734 75.8438 235.438 76.2656 235.125 76.5781C234.844 76.8594 234.469 77 234 77C233.469 77 233.047 76.8438 232.734 76.5312C232.422 76.1875 232.266 75.7969 232.266 75.3594C232.266 75.2031 232.281 75.0781 232.312 74.9844C232.344 74.8594 232.422 74.6719 232.547 74.4219C233.359 72.8594 233.953 71.5 234.328 70.3438C234.734 69.1562 235.062 67.9219 235.312 66.6406C235.094 65.9219 234.938 65.3125 234.844 64.8125C234.75 64.3125 234.703 63.7969 234.703 63.2656C234.703 62.2344 234.922 61.4062 235.359 60.7812C235.797 60.125 236.406 59.7969 237.188 59.7969C237.906 59.7969 238.469 60.1094 238.875 60.7344C239.312 61.3594 239.531 62.125 239.531 63.0312C239.531 63.5312 239.484 64.0312 239.391 64.5312C239.297 65.0312 239.172 65.6562 239.016 66.4062C239.734 68.1875 240.453 69.7656 241.172 71.1406C241.891 72.5156 242.531 73.7812 243.094 74.9375C243.656 76.0625 244.109 77.125 244.453 78.125C244.828 79.125 245.016 80.125 245.016 81.125C245.016 82.4375 244.75 83.6875 244.219 84.875C243.688 86.0625 242.812 87.0625 241.594 87.875C241.75 87.9062 241.906 87.9219 242.062 87.9219C242.219 87.9219 242.375 87.9219 242.531 87.9219C244.312 87.9219 245.953 87.5156 247.453 86.7031C248.953 85.8906 250.297 84.8438 251.484 83.5625C252.703 82.25 253.781 80.8125 254.719 79.25C255.656 77.6562 256.469 76.0781 257.156 74.5156C257.469 73.7969 257.906 73.4375 258.469 73.4375C259 73.4375 259.406 73.625 259.688 74C260 74.375 260.156 74.7812 260.156 75.2188C260.156 75.4688 260.109 75.7031 260.016 75.9219C259.672 76.7656 259.219 77.7344 258.656 78.8281C258.125 79.8906 257.469 81 256.688 82.1562C255.938 83.2812 255.062 84.3906 254.062 85.4844C253.062 86.5781 251.938 87.5625 250.688 88.4375C249.469 89.2812 248.125 89.9531 246.656 90.4531C245.188 90.9844 243.578 91.25 241.828 91.25C239.734 91.25 237.781 90.875 235.969 90.125C234.188 89.4062 232.734 88.2031 231.609 86.5156C231.422 86.2344 231.328 85.9375 231.328 85.625C231.328 85.1562 231.5 84.75 231.844 84.4062C232.219 84.0312 232.641 83.8438 233.109 83.8438C233.609 83.8438 234.031 84.0156 234.375 84.3594C234.406 84.4219 234.516 84.5312 234.703 84.6875C234.891 84.8125 235.109 84.9688 235.359 85.1562C235.641 85.3125 235.953 85.4531 236.297 85.5781C236.672 85.7031 237.047 85.7656 237.422 85.7656C238.172 85.7656 238.797 85.6094 239.297 85.2969C239.828 84.9844 240.25 84.6094 240.562 84.1719C240.875 83.7031 241.094 83.2188 241.219 82.7188C241.375 82.1875 241.453 81.7344 241.453 81.3594C241.453 80.5781 241.328 79.7969 241.078 79.0156C240.828 78.2344 240.5 77.4531 240.094 76.6719C239.719 75.8906 239.297 75.0938 238.828 74.2812C238.391 73.4375 237.984 72.5625 237.609 71.6562ZM260.484 85.0156C260.984 83.9531 261.562 82.8125 262.219 81.5938C262.875 80.3438 263.578 79.0781 264.328 77.7969C265.078 76.4844 265.875 75.1875 266.719 73.9062C267.562 72.625 268.438 71.4219 269.344 70.2969C270.25 69.2031 271.156 68.4219 272.062 67.9531C273 67.4531 273.875 67.2031 274.688 67.2031C275.5 67.2031 276.203 67.375 276.797 67.7188C277.422 68.0312 277.922 68.4688 278.297 69.0312C278.703 69.5938 279 70.25 279.188 71C279.406 71.75 279.516 72.5625 279.516 73.4375C279.516 74.1562 279.438 75.125 279.281 76.3438C279.156 77.5312 279.094 78.7812 279.094 80.0938C279.094 80.8438 279.125 81.5938 279.188 82.3438C279.281 83.0625 279.422 83.7188 279.609 84.3125C279.828 84.875 280.141 85.3438 280.547 85.7188C280.953 86.0625 281.484 86.2344 282.141 86.2344C282.891 86.2344 283.641 86.0312 284.391 85.625C285.141 85.1875 285.875 84.625 286.594 83.9375C287.312 83.2188 288 82.4375 288.656 81.5938C289.312 80.7188 289.906 79.8594 290.438 79.0156C290.969 78.1406 291.438 77.3125 291.844 76.5312C292.25 75.7188 292.578 75.0469 292.828 74.5156C293.141 73.7969 293.688 73.4375 294.469 73.4375C295 73.4375 295.422 73.625 295.734 74C296.047 74.375 296.203 74.7812 296.203 75.2188C296.203 75.4688 296.156 75.7031 296.062 75.9219C295.938 76.1719 295.688 76.6875 295.312 77.4688C294.969 78.25 294.484 79.1562 293.859 80.1875C293.266 81.2188 292.562 82.2969 291.75 83.4219C290.938 84.5469 290.031 85.5938 289.031 86.5625C288.062 87.5 287 88.2812 285.844 88.9062C284.719 89.5 283.531 89.7969 282.281 89.7969C280.844 89.7969 279.688 89.5 278.812 88.9062C277.938 88.2812 277.25 87.5 276.75 86.5625C276.281 85.625 275.953 84.5781 275.766 83.4219C275.609 82.2656 275.531 81.1406 275.531 80.0469C275.531 79.4844 275.547 78.8906 275.578 78.2656C275.641 77.6094 275.703 76.9688 275.766 76.3438C275.828 75.7188 275.875 75.1406 275.906 74.6094C275.969 74.0469 276 73.5781 276 73.2031C276 72.2344 275.859 71.5781 275.578 71.2344C275.328 70.8906 275.031 70.7188 274.688 70.7188C274.188 70.7188 273.609 71.0156 272.953 71.6094C272.328 72.1719 271.656 72.9219 270.938 73.8594C270.25 74.7969 269.547 75.8594 268.828 77.0469C268.141 78.2031 267.469 79.3594 266.812 80.5156C266.156 81.6719 265.562 82.7812 265.031 83.8438C264.5 84.875 264.062 85.7344 263.719 86.4219C263.062 87.7344 262.391 88.6094 261.703 89.0469C261.047 89.5156 260.453 89.75 259.922 89.75C258.953 89.75 258.203 89.375 257.672 88.625C257.172 87.8438 256.922 86.9062 256.922 85.8125V82.8594C256.922 76.9531 256.922 71.3281 256.922 65.9844C256.953 60.6094 257.031 55.625 257.156 51.0312C257.312 46.4062 257.547 42.2344 257.859 38.5156C258.203 34.7656 258.703 31.5781 259.359 28.9531C260.016 26.2969 260.844 24.25 261.844 22.8125C262.875 21.375 264.156 20.6562 265.688 20.6562C267 20.6562 268.109 21.0156 269.016 21.7344C269.922 22.4531 270.656 23.4375 271.219 24.6875C271.781 25.9062 272.188 27.3438 272.438 29C272.688 30.625 272.812 32.3438 272.812 34.1562C272.812 37.8438 272.469 41.4688 271.781 45.0312C271.125 48.5625 270.234 52.0156 269.109 55.3906C267.984 58.7656 266.672 62.0625 265.172 65.2812C263.672 68.4688 262.094 71.5781 260.438 74.6094C260.438 75.1719 260.438 75.8438 260.438 76.625C260.438 77.4062 260.438 78.1875 260.438 78.9688C260.438 79.75 260.438 80.4844 260.438 81.1719C260.438 81.8594 260.438 82.4062 260.438 82.8125L260.484 85.0156ZM260.484 67.7188C261.797 64.8438 262.984 62.0469 264.047 59.3281C265.141 56.5781 266.062 53.8438 266.812 51.125C267.594 48.4062 268.203 45.6562 268.641 42.875C269.078 40.0625 269.297 37.1406 269.297 34.1094C269.297 33.6094 269.266 32.8125 269.203 31.7188C269.172 30.625 269.031 29.5156 268.781 28.3906C268.562 27.2656 268.203 26.2812 267.703 25.4375C267.234 24.5938 266.562 24.1719 265.688 24.1719C265 24.1719 264.406 24.6406 263.906 25.5781C263.406 26.4844 262.969 27.7344 262.594 29.3281C262.219 30.8906 261.906 32.7188 261.656 34.8125C261.406 36.9062 261.203 39.125 261.047 41.4688C260.891 43.8125 260.766 46.2188 260.672 48.6875C260.609 51.1562 260.562 53.5625 260.531 55.9062C260.5 58.2188 260.484 60.3906 260.484 62.4219C260.484 64.4531 260.484 66.2188 260.484 67.7188ZM298.078 71.6562C297.891 72.1562 297.656 72.7188 297.375 73.3438C297.125 73.9688 296.828 74.625 296.484 75.3125C296.203 75.8438 295.906 76.2656 295.594 76.5781C295.312 76.8594 294.938 77 294.469 77C293.938 77 293.516 76.8438 293.203 76.5312C292.891 76.1875 292.734 75.7969 292.734 75.3594C292.734 75.2031 292.75 75.0781 292.781 74.9844C292.812 74.8594 292.891 74.6719 293.016 74.4219C293.828 72.8594 294.422 71.5 294.797 70.3438C295.203 69.1562 295.531 67.9219 295.781 66.6406C295.562 65.9219 295.406 65.3125 295.312 64.8125C295.219 64.3125 295.172 63.7969 295.172 63.2656C295.172 62.2344 295.391 61.4062 295.828 60.7812C296.266 60.125 296.875 59.7969 297.656 59.7969C298.375 59.7969 298.938 60.1094 299.344 60.7344C299.781 61.3594 300 62.125 300 63.0312C300 63.5312 299.953 64.0312 299.859 64.5312C299.766 65.0312 299.641 65.6562 299.484 66.4062C300.203 68.1875 300.922 69.7656 301.641 71.1406C302.359 72.5156 303 73.7812 303.562 74.9375C304.125 76.0625 304.578 77.125 304.922 78.125C305.297 79.125 305.484 80.125 305.484 81.125C305.484 82.4375 305.219 83.6875 304.688 84.875C304.156 86.0625 303.281 87.0625 302.062 87.875C302.219 87.9062 302.375 87.9219 302.531 87.9219C302.688 87.9219 302.844 87.9219 303 87.9219C304.781 87.9219 306.422 87.5156 307.922 86.7031C309.422 85.8906 310.766 84.8438 311.953 83.5625C313.172 82.25 314.25 80.8125 315.188 79.25C316.125 77.6562 316.938 76.0781 317.625 74.5156C317.938 73.7969 318.375 73.4375 318.938 73.4375C319.469 73.4375 319.875 73.625 320.156 74C320.469 74.375 320.625 74.7812 320.625 75.2188C320.625 75.4688 320.578 75.7031 320.484 75.9219C320.141 76.7656 319.688 77.7344 319.125 78.8281C318.594 79.8906 317.938 81 317.156 82.1562C316.406 83.2812 315.531 84.3906 314.531 85.4844C313.531 86.5781 312.406 87.5625 311.156 88.4375C309.938 89.2812 308.594 89.9531 307.125 90.4531C305.656 90.9844 304.047 91.25 302.297 91.25C300.203 91.25 298.25 90.875 296.438 90.125C294.656 89.4062 293.203 88.2031 292.078 86.5156C291.891 86.2344 291.797 85.9375 291.797 85.625C291.797 85.1562 291.969 84.75 292.312 84.4062C292.688 84.0312 293.109 83.8438 293.578 83.8438C294.078 83.8438 294.5 84.0156 294.844 84.3594C294.875 84.4219 294.984 84.5312 295.172 84.6875C295.359 84.8125 295.578 84.9688 295.828 85.1562C296.109 85.3125 296.422 85.4531 296.766 85.5781C297.141 85.7031 297.516 85.7656 297.891 85.7656C298.641 85.7656 299.266 85.6094 299.766 85.2969C300.297 84.9844 300.719 84.6094 301.031 84.1719C301.344 83.7031 301.562 83.2188 301.688 82.7188C301.844 82.1875 301.922 81.7344 301.922 81.3594C301.922 80.5781 301.797 79.7969 301.547 79.0156C301.297 78.2344 300.969 77.4531 300.562 76.6719C300.188 75.8906 299.766 75.0938 299.297 74.2812C298.859 73.4375 298.453 72.5625 298.078 71.6562ZM320.953 85.0156C321.453 83.9531 322.031 82.8125 322.688 81.5938C323.344 80.3438 324.047 79.0781 324.797 77.7969C325.547 76.4844 326.344 75.1875 327.188 73.9062C328.031 72.625 328.906 71.4219 329.812 70.2969C330.719 69.2031 331.625 68.4219 332.531 67.9531C333.469 67.4531 334.344 67.2031 335.156 67.2031C335.969 67.2031 336.672 67.375 337.266 67.7188C337.891 68.0312 338.391 68.4688 338.766 69.0312C339.172 69.5938 339.469 70.25 339.656 71C339.875 71.75 339.984 72.5625 339.984 73.4375C339.984 74.1562 339.906 75.125 339.75 76.3438C339.625 77.5312 339.562 78.7812 339.562 80.0938C339.562 80.8438 339.594 81.5938 339.656 82.3438C339.75 83.0625 339.891 83.7188 340.078 84.3125C340.297 84.875 340.609 85.3438 341.016 85.7188C341.422 86.0625 341.953 86.2344 342.609 86.2344C343.359 86.2344 344.109 86.0312 344.859 85.625C345.609 85.1875 346.344 84.625 347.062 83.9375C347.781 83.2188 348.469 82.4375 349.125 81.5938C349.781 80.7188 350.375 79.8594 350.906 79.0156C351.438 78.1406 351.906 77.3125 352.312 76.5312C352.719 75.7188 353.047 75.0469 353.297 74.5156C353.609 73.7969 354.156 73.4375 354.938 73.4375C355.469 73.4375 355.891 73.625 356.203 74C356.516 74.375 356.672 74.7812 356.672 75.2188C356.672 75.4688 356.625 75.7031 356.531 75.9219C356.406 76.1719 356.156 76.6875 355.781 77.4688C355.438 78.25 354.953 79.1562 354.328 80.1875C353.734 81.2188 353.031 82.2969 352.219 83.4219C351.406 84.5469 350.5 85.5938 349.5 86.5625C348.531 87.5 347.469 88.2812 346.312 88.9062C345.188 89.5 344 89.7969 342.75 89.7969C341.312 89.7969 340.156 89.5 339.281 88.9062C338.406 88.2812 337.719 87.5 337.219 86.5625C336.75 85.625 336.422 84.5781 336.234 83.4219C336.078 82.2656 336 81.1406 336 80.0469C336 79.4844 336.016 78.8906 336.047 78.2656C336.109 77.6094 336.172 76.9688 336.234 76.3438C336.297 75.7188 336.344 75.1406 336.375 74.6094C336.438 74.0469 336.469 73.5781 336.469 73.2031C336.469 72.2344 336.328 71.5781 336.047 71.2344C335.797 70.8906 335.5 70.7188 335.156 70.7188C334.656 70.7188 334.078 71.0156 333.422 71.6094C332.797 72.1719 332.125 72.9219 331.406 73.8594C330.719 74.7969 330.016 75.8594 329.297 77.0469C328.609 78.2031 327.938 79.3594 327.281 80.5156C326.625 81.6719 326.031 82.7812 325.5 83.8438C324.969 84.875 324.531 85.7344 324.188 86.4219C323.531 87.7344 322.859 88.6094 322.172 89.0469C321.516 89.5156 320.922 89.75 320.391 89.75C319.422 89.75 318.672 89.375 318.141 88.625C317.641 87.8438 317.391 86.9062 317.391 85.8125V82.8594C317.391 76.9531 317.391 71.3281 317.391 65.9844C317.422 60.6094 317.5 55.625 317.625 51.0312C317.781 46.4062 318.016 42.2344 318.328 38.5156C318.672 34.7656 319.172 31.5781 319.828 28.9531C320.484 26.2969 321.312 24.25 322.312 22.8125C323.344 21.375 324.625 20.6562 326.156 20.6562C327.469 20.6562 328.578 21.0156 329.484 21.7344C330.391 22.4531 331.125 23.4375 331.688 24.6875C332.25 25.9062 332.656 27.3438 332.906 29C333.156 30.625 333.281 32.3438 333.281 34.1562C333.281 37.8438 332.938 41.4688 332.25 45.0312C331.594 48.5625 330.703 52.0156 329.578 55.3906C328.453 58.7656 327.141 62.0625 325.641 65.2812C324.141 68.4688 322.562 71.5781 320.906 74.6094C320.906 75.1719 320.906 75.8438 320.906 76.625C320.906 77.4062 320.906 78.1875 320.906 78.9688C320.906 79.75 320.906 80.4844 320.906 81.1719C320.906 81.8594 320.906 82.4062 320.906 82.8125L320.953 85.0156ZM320.953 67.7188C322.266 64.8438 323.453 62.0469 324.516 59.3281C325.609 56.5781 326.531 53.8438 327.281 51.125C328.062 48.4062 328.672 45.6562 329.109 42.875C329.547 40.0625 329.766 37.1406 329.766 34.1094C329.766 33.6094 329.734 32.8125 329.672 31.7188C329.641 30.625 329.5 29.5156 329.25 28.3906C329.031 27.2656 328.672 26.2812 328.172 25.4375C327.703 24.5938 327.031 24.1719 326.156 24.1719C325.469 24.1719 324.875 24.6406 324.375 25.5781C323.875 26.4844 323.438 27.7344 323.062 29.3281C322.688 30.8906 322.375 32.7188 322.125 34.8125C321.875 36.9062 321.672 39.125 321.516 41.4688C321.359 43.8125 321.234 46.2188 321.141 48.6875C321.078 51.1562 321.031 53.5625 321 55.9062C320.969 58.2188 320.953 60.3906 320.953 62.4219C320.953 64.4531 320.953 66.2188 320.953 67.7188ZM360.984 52.2031C360.984 53.3906 360.562 54.4062 359.719 55.25C358.906 56.0625 357.906 56.4688 356.719 56.4688C355.531 56.4688 354.516 56.0625 353.672 55.25C352.859 54.4062 352.453 53.3906 352.453 52.2031C352.453 51.6094 352.562 51.0625 352.781 50.5625C353 50.0312 353.297 49.5781 353.672 49.2031C354.078 48.7969 354.531 48.4844 355.031 48.2656C355.562 48.0469 356.125 47.9375 356.719 47.9375C357.312 47.9375 357.859 48.0469 358.359 48.2656C358.891 48.4844 359.344 48.7969 359.719 49.2031C360.125 49.5781 360.438 50.0312 360.656 50.5625C360.875 51.0625 360.984 51.6094 360.984 52.2031ZM353.391 79.6719C353.391 75.1719 353.672 70.6875 354.234 66.2188C354.297 65.7812 354.484 65.4062 354.797 65.0938C355.141 64.75 355.578 64.5781 356.109 64.5781C356.578 64.5781 356.969 64.7656 357.281 65.1406C357.594 65.4844 357.75 65.8906 357.75 66.3594C357.75 66.5469 357.703 67.1094 357.609 68.0469C357.547 68.9844 357.453 70.1094 357.328 71.4219C357.234 72.7031 357.141 74.0781 357.047 75.5469C356.984 76.9844 356.953 78.3125 356.953 79.5312C356.953 81.1875 357.109 82.5312 357.422 83.5625C357.766 84.5625 358.188 85.3438 358.688 85.9062C359.219 86.4688 359.766 86.8438 360.328 87.0312C360.922 87.2188 361.484 87.3125 362.016 87.3125C362.891 87.3125 363.797 87 364.734 86.375C365.672 85.75 366.625 84.875 367.594 83.75C368.594 82.625 369.594 81.2812 370.594 79.7188C371.594 78.125 372.578 76.3594 373.547 74.4219C373.703 74.1094 373.922 73.875 374.203 73.7188C374.484 73.5312 374.797 73.4375 375.141 73.4375C375.641 73.4375 376.047 73.625 376.359 74C376.703 74.375 376.875 74.7812 376.875 75.2188C376.875 75.5312 376.812 75.7969 376.688 76.0156C376.312 76.7344 375.844 77.6094 375.281 78.6406C374.719 79.6719 374.078 80.7344 373.359 81.8281C372.641 82.9219 371.844 84.0156 370.969 85.1094C370.125 86.1719 369.219 87.1406 368.25 88.0156C367.281 88.8594 366.266 89.5469 365.203 90.0781C364.141 90.6094 363.062 90.875 361.969 90.875C360.562 90.875 359.328 90.5781 358.266 89.9844C357.203 89.3906 356.297 88.5938 355.547 87.5938C354.828 86.5938 354.281 85.4219 353.906 84.0781C353.562 82.7031 353.391 81.2344 353.391 79.6719ZM358.359 52.2031C358.359 51.7656 358.188 51.3906 357.844 51.0781C357.531 50.7344 357.156 50.5625 356.719 50.5625C356.281 50.5625 355.906 50.7344 355.594 51.0781C355.281 51.3906 355.125 51.7656 355.125 52.2031C355.125 52.6406 355.281 53.0156 355.594 53.3281C355.906 53.6406 356.281 53.7969 356.719 53.7969C357.156 53.7969 357.531 53.6406 357.844 53.3281C358.188 53.0156 358.359 52.6406 358.359 52.2031ZM378.422 69.7344C378.297 70.5781 378.141 71.375 377.953 72.125C377.766 72.8438 377.578 73.4844 377.391 74.0469C377.234 74.5781 377.094 75.0156 376.969 75.3594C376.844 75.7031 376.766 75.8906 376.734 75.9219C376.422 76.6406 375.875 77 375.094 77C374.656 77 374.25 76.8438 373.875 76.5312C373.5 76.1875 373.312 75.7656 373.312 75.2656C373.312 75.0781 373.344 74.9375 373.406 74.8438C373.469 74.75 373.562 74.5625 373.688 74.2812C373.812 74 373.969 73.5312 374.156 72.875C374.344 72.2188 374.578 71.2031 374.859 69.8281C374.328 69.8281 373.781 69.8125 373.219 69.7812C372.656 69.75 372.141 69.6406 371.672 69.4531C371.172 69.2656 370.766 68.9688 370.453 68.5625C370.141 68.1562 369.984 67.5938 369.984 66.875C369.984 66.3438 370.141 65.625 370.453 64.7188C370.734 63.8125 371.125 62.9219 371.625 62.0469C372.125 61.1719 372.688 60.4219 373.312 59.7969C373.938 59.1406 374.562 58.8125 375.188 58.8125C375.906 58.8125 376.484 59.0781 376.922 59.6094C377.391 60.1406 377.75 60.7969 378 61.5781C378.25 62.3281 378.422 63.125 378.516 63.9688C378.641 64.8125 378.703 65.5469 378.703 66.1719C379.234 66.1719 379.75 66.1719 380.25 66.1719C380.781 66.1406 381.281 66.125 381.75 66.125C383.531 66.125 384.891 66.5156 385.828 67.2969C386.766 68.0781 387.234 69.3594 387.234 71.1406C387.234 71.8594 387.188 72.6094 387.094 73.3906C387 74.1719 386.891 74.9844 386.766 75.8281C386.641 76.6406 386.531 77.4531 386.438 78.2656C386.344 79.0781 386.297 79.875 386.297 80.6562C386.297 81.7812 386.453 82.7188 386.766 83.4688C387.078 84.1875 387.469 84.7656 387.938 85.2031C388.406 85.6406 388.906 85.9531 389.438 86.1406C389.969 86.2969 390.453 86.375 390.891 86.375C392.234 86.375 393.5 85.9375 394.688 85.0625C395.875 84.1875 396.969 83.1406 397.969 81.9219C398.969 80.6719 399.859 79.3594 400.641 77.9844C401.453 76.6094 402.125 75.4062 402.656 74.375C402.812 74.0938 403.031 73.875 403.312 73.7188C403.594 73.5625 403.891 73.4844 404.203 73.4844C404.766 73.4844 405.203 73.6719 405.516 74.0469C405.828 74.3906 405.984 74.7812 405.984 75.2188C405.984 75.5312 405.922 75.8125 405.797 76.0625C405.078 77.3438 404.234 78.7969 403.266 80.4219C402.328 82.0156 401.25 83.5156 400.031 84.9219C398.812 86.3281 397.438 87.5156 395.906 88.4844C394.406 89.4531 392.75 89.9375 390.938 89.9375C389.812 89.9375 388.75 89.7188 387.75 89.2812C386.75 88.875 385.875 88.2812 385.125 87.5C384.406 86.6875 383.828 85.7031 383.391 84.5469C382.953 83.3594 382.734 82.0312 382.734 80.5625C382.734 79 382.891 77.4531 383.203 75.9219C383.516 74.3594 383.672 72.875 383.672 71.4688C383.672 70.875 383.531 70.4375 383.25 70.1562C383 69.8438 382.422 69.6875 381.516 69.6875C381.078 69.6875 380.594 69.6875 380.062 69.6875C379.562 69.6875 379.016 69.7031 378.422 69.7344ZM375.281 66.2656C375.281 66.0469 375.266 65.7656 375.234 65.4219C375.234 65.0469 375.203 64.6875 375.141 64.3438C375.109 64 375.047 63.7031 374.953 63.4531C374.891 63.2031 374.812 63.0781 374.719 63.0781C374.625 63.0781 374.5 63.2031 374.344 63.4531C374.219 63.6719 374.078 63.9531 373.922 64.2969C373.766 64.6094 373.625 64.9531 373.5 65.3281C373.375 65.7031 373.281 66.0156 373.219 66.2656H375.281Z" fill="black"/>
</svg>
